<svg xmlns="http://www.w3.org/2000/svg" viewBox="0 0 1800 1800" width="1800" height="1800"><g transform="translate(478.0 1516.0) rotate(0.0 258.0 32.5) scale(0.9942196531791907 1.0)"><svg width="519" height="65" viewBox="0 0 519 65"><ellipse cx="259.5" cy="32.5" rx="259.5" ry="32.5" style="fill:#cbc8ff"/></svg></g><g transform="translate(437.0 1103.0) rotate(0.0 146.0 226.5) scale(1.0 1.0)"><svg width="292" height="453" viewBox="0 0 292 453"><path d="M146 437a7 7 0 0 1-7-7V44a7 7 0 1 1 14 0v386a7 7 0 0 1-7 7z" fill="#9797f7"/><path d="M146 438c-4.411 0-8-3.589-8-8V44c0-4.411 3.589-8 8-8s8 3.589 8 8v386c0 4.411-3.588 8-8 8zm0-400c-3.309 0-6 2.691-6 6v386c0 3.309 2.691 6 6 6s6-2.691 6-6V44c0-3.308-2.691-6-6-6z" fill="#112c41"/><path d="M234 437a7 7 0 0 1-7-7v-32.195a5.811 5.811 0 0 0-5.805-5.805H71.805A5.811 5.811 0 0 0 66 397.805V427a7 7 0 1 1-14 0v-29.195C52 386.885 60.885 378 71.805 378h149.391c10.92 0 19.805 8.885 19.805 19.805V430a7.001 7.001 0 0 1-7.001 7z" fill="#9797f7"/><path d="M234 438c-4.411 0-8-3.589-8-8v-32.195a4.81 4.81 0 0 0-4.805-4.805H71.805A4.81 4.81 0 0 0 67 397.805V427c0 4.411-3.589 8-8 8s-8-3.589-8-8v-29.195C51 386.333 60.333 377 71.805 377h149.391c11.472 0 20.805 9.333 20.805 20.805V430c-.001 4.411-3.589 8-8.001 8zM71.805 391h149.391a6.813 6.813 0 0 1 6.805 6.805V430c0 3.309 2.691 6 6 6s6-2.691 6-6v-32.195c0-10.369-8.436-18.805-18.805-18.805H71.805C61.436 379 53 387.436 53 397.805V427c0 3.309 2.691 6 6 6s6-2.691 6-6v-29.195A6.813 6.813 0 0 1 71.805 391z" fill="#112c41"/><path d="M291 33c0 8.84-3.58 16.84-9.37 22.63S267.84 65 259 65H33C15.33 65 1 50.67 1 33c0-8.84 3.58-16.84 9.37-22.63S24.16 1 33 1h226c5.26 0 10.23 1.27 14.61 3.52h.01C283.94 9.84 291 20.6 291 33z" fill="#ffa9dc"/><path d="M259 66H33C14.804 66 0 51.197 0 33c0-8.818 3.432-17.106 9.663-23.337C15.895 3.432 24.183 0 33 0h226a33.105 33.105 0 0 1 14.989 3.591c.03.012.061.025.089.04C285.133 9.33 292 20.584 292 33c0 8.817-3.432 17.105-9.663 23.337S267.818 66 259 66zM33 2c-8.283 0-16.069 3.224-21.923 9.077C5.224 16.93 2 24.716 2 33c0 17.094 13.906 31 31 31h226c8.283 0 16.069-3.224 21.923-9.077S290 41.283 290 33c0-11.636-6.422-22.186-16.763-27.553a1.094 1.094 0 0 1-.085-.038A31.1 31.1 0 0 0 259 2z" fill="#112c41"/><path d="M291 33c0 8.84-3.58 16.84-9.37 22.63S267.84 65 259 65H44.52C149 58 230.758 57.576 255 44c25-14 18.6-39.47 18.6-39.47l.01-.01h.01C283.94 9.84 291 20.6 291 33z" fill="#ff90d8"/><path d="M259 66H33C14.804 66 0 51.197 0 33S14.804 0 33 0h226c18.196 0 33 14.804 33 33s-14.803 33-33 33zM33 2C15.907 2 2 15.907 2 33s13.906 31 31 31h226c17.094 0 31-13.906 31-31S276.094 2 259 2z" fill="#112c41"/><circle cx="58.5" cy="429.5" fill="#9797f7" r="22.5"/><path d="M58.5 453C45.542 453 35 442.458 35 429.5S45.542 406 58.5 406 82 416.542 82 429.5 71.458 453 58.5 453zm0-45c-11.855 0-21.5 9.645-21.5 21.5S46.645 451 58.5 451 80 441.356 80 429.5 70.356 408 58.5 408z" fill="#112c41"/><circle cx="146.5" cy="429.5" fill="#9797f7" r="22.5"/><path d="M146.5 453c-12.958 0-23.5-10.542-23.5-23.5s10.542-23.5 23.5-23.5 23.5 10.542 23.5 23.5-10.542 23.5-23.5 23.5zm0-45c-11.855 0-21.5 9.645-21.5 21.5s9.645 21.5 21.5 21.5 21.5-9.645 21.5-21.5-9.644-21.5-21.5-21.5z" fill="#112c41"/><circle cx="234.5" cy="429.5" fill="#9797f7" r="22.5"/><path d="M234.5 453c-12.958 0-23.5-10.542-23.5-23.5s10.542-23.5 23.5-23.5 23.5 10.542 23.5 23.5-10.542 23.5-23.5 23.5zm0-45c-11.855 0-21.5 9.645-21.5 21.5s9.645 21.5 21.5 21.5 21.5-9.645 21.5-21.5-9.644-21.5-21.5-21.5z" fill="#112c41"/><g fill="#fff"><circle cx="58.5" cy="429.5" r="6.5"/><circle cx="146.5" cy="429.5" r="6.5"/><circle cx="234.5" cy="429.5" r="6.5"/></g></svg></g><g transform="translate(464.0 871.0) rotate(0.0 282.0 362.0) scale(0.9993178415443359 0.9990533831204135)"><svg width="564.385" height="724.686" viewBox="0 0 564.385 724.686"><path d="M368.856 487.433a832.69 832.69 0 0 0 14.654-36.26l.087-.2c.028-.081.063-.155.086-.214 4.711-12.489 9.299-24.609 13.216-35.225 0 0 86.429 36.212 135.364 49.92-4.643 11.716-9.303 21.316-14.725 33.504-9.317 20.955-17.33 38.825-17.33 38.825l-131.352-50.349z" fill="#ffd6c0"/><path d="m414.365 413.481-30.846 79.744c-4.595.998-13.482 3.026-16.641 3.173 12.137-31.901 32.455-85.391 32.455-85.391z" fill="#f5b9ab"/><path d="M500.208 538.782c-.119 0-.24-.021-.358-.066l-131.352-50.349a.998.998 0 0 1-.559-1.33 828.05 828.05 0 0 0 14.637-36.217l.106-.248s.028-.075.056-.139l1.854-4.912c4.097-10.856 7.967-21.11 11.369-30.333a1 1 0 0 1 1.325-.576c.863.362 86.933 36.345 135.247 49.879a.998.998 0 0 1 .66 1.332c-3.27 8.249-6.579 15.522-10.083 23.223-1.498 3.293-3.045 6.691-4.658 10.319-9.211 20.717-17.252 38.649-17.332 38.828a.998.998 0 0 1-.912.591zm-130.021-51.91 129.495 49.638c1.713-3.823 8.879-19.824 16.941-37.959 1.616-3.633 3.165-7.037 4.666-10.335 3.347-7.354 6.515-14.318 9.634-22.102-45.817-12.997-123.878-45.276-133.447-49.257-3.317 8.974-7.06 18.891-11.013 29.369l-1.844 4.885a3.419 3.419 0 0 1-.044.107 7.162 7.162 0 0 1-.063.155l-.087.2a826.918 826.918 0 0 1-14.239 35.298z" fill="#112c41"/><path d="M528.668 636.272c-51.004-3.978-109.671-30.588-155.447-61.077-13.343-8.892-25.593-18.101-36.234-27.187 0 0 20.576-37.478 31.869-60.575l10.598 4.096s120.401 46.209 120.754 46.253c7.083 8.651 38.107 50.689 28.46 98.49z" fill="#ffa9dc"/><path d="M336.987 548.009s20.576-37.478 31.869-60.575l12.068 7.373c-7.204 21.286-18.964 54.372-16.313 74.719.028.214-16.983-12.43-27.624-21.516z" fill="#ff90d8"/><path d="M528.669 637.272c-.026 0-.053 0-.079-.003-45.373-3.539-103.661-26.433-155.923-61.241-13.318-8.876-25.541-18.047-36.329-27.259a1.002 1.002 0 0 1-.228-1.242c.206-.375 20.694-37.722 31.848-60.533a1 1 0 0 1 1.259-.493l10.598 4.096c1.185.455 118.424 45.448 120.678 46.227a.997.997 0 0 1 .489.325c6.526 7.97 38.576 50.215 28.667 99.321a1 1 0 0 1-.979.802zm-190.413-89.497c10.575 8.983 22.521 17.926 35.521 26.588 51.649 34.401 109.163 57.1 154.083 60.84 9.247-48.292-23.696-90.962-28.27-96.597-2.485-.911-18.111-6.85-120.494-46.144l-9.745-3.767c-10.384 21.14-28.23 53.844-31.095 59.079z" fill="#112c41"/><path d="M443.536 616.56h-.073a2.5 2.5 0 0 1-2.427-2.571c.357-12.365-2.509-28.424-26.479-53.772-20.631-21.816-24.958-39.619-15.966-65.688a2.5 2.5 0 0 1 4.727 1.631c-8.378 24.288-4.486 40.152 14.872 60.622 20.066 21.22 28.394 38.372 27.845 57.353a2.5 2.5 0 0 1-2.498 2.428z" fill="#fff"/><path d="M522.575 658.61c-.622 1.471-1.684 2.568-3.405 3.027-31.326 8.362-144.597-39.79-190.347-83.552-3.919-3.749-3.696-6.919-2.53-10.032l10.693-20.045c47.169 40.251 125.813 83.123 191.681 88.264-1.407 7.889-3.284 15.693-6.092 22.338z" fill="#fff"/><path d="M510.649 663.567c-17.564 0-47.424-8.399-81.641-23.242-41.894-18.172-79.604-41.17-100.876-61.518-4.499-4.304-3.928-8.029-2.775-11.105a.817.817 0 0 1 .055-.12l10.693-20.045a1 1 0 0 1 1.531-.29c45.418 38.757 124.596 82.836 191.109 88.027a1.002 1.002 0 0 1 .906 1.172c-1.656 9.293-3.67 16.67-6.155 22.552-.796 1.884-2.165 3.096-4.068 3.604-2.424.647-5.371.963-8.779.963zm-183.441-95.102c-1.099 2.968-1.116 5.623 2.308 8.897 47.229 45.177 159.731 91.234 189.397 83.309 1.294-.345 2.19-1.147 2.742-2.45 2.33-5.514 4.24-12.406 5.832-21.042-66.265-5.584-144.65-49.057-190.202-87.605z" fill="#112c41"/><path d="M368.858 487.429c35.48 24.155 92.337 44.869 131.349 50.353 0 0 6.521-14.731 14.749-33.018.287-.633.571-1.276.855-1.919s.568-1.286.862-1.931l.866-1.954c-36.027-5.63-89.899-26.231-133.742-48.462 0 0-.036.093-.113.261-.025.059-.066.133-.085.211-.032.072-.066.133-.088.202a834.078 834.078 0 0 1-14.655 36.257z" fill="#fff"/><path d="M500.208 538.782a.951.951 0 0 1-.14-.01c-41.362-5.815-98.013-27.532-131.772-50.517a1 1 0 0 1-.355-1.223 828.743 828.743 0 0 0 14.638-36.214c.01-.038.047-.123.09-.213.025-.074.056-.145.086-.21.077-.17.105-.24.11-.254a1.004 1.004 0 0 1 1.387-.536c47.646 24.159 100.025 43.144 133.444 48.367a1 1 0 0 1 .76 1.393l-.865 1.952c-.297.652-.58 1.292-.862 1.931-.286.646-.571 1.292-.859 1.928a6606.41 6606.41 0 0 0-14.746 33.01.999.999 0 0 1-.914.595zm-130.104-51.717c33.413 22.524 88.743 43.728 129.496 49.62a6739.288 6739.288 0 0 1 14.444-32.332c.287-.633.57-1.273.853-1.914.286-.646.571-1.292.867-1.941l.336-.757c-33.426-5.493-84.835-24.156-131.786-47.863a827.896 827.896 0 0 1-14.21 35.187z" fill="#112c41"/><circle cx="477.533" cy="558.836" fill="#ffe993" r="8.5"/><path d="M477.722 561.781c14.13 5.878 32.429 4.743 38.477 2.412a2.831 2.831 0 1 0-2.037-5.285c-4.643 1.789-22.161 3.024-35.077-2.706a2.832 2.832 0 0 0-2.3 5.176c.31.138.623.272.936.403z" fill="#fff"/><path d="M501.611 567.103c-7.551 0-16.465-1.151-24.271-4.398a43.31 43.31 0 0 1-.96-.413 3.836 3.836 0 0 1-1.946-5.058 3.841 3.841 0 0 1 5.058-1.947c12.662 5.617 29.788 4.429 34.313 2.687a3.836 3.836 0 0 1 4.953 2.198 3.81 3.81 0 0 1-.072 2.933 3.81 3.81 0 0 1-2.126 2.021c-2.888 1.113-8.406 1.977-14.947 1.977zm-23.672-10.145c-.703 0-1.375.406-1.678 1.087-.41.923.008 2.008.931 2.418.302.135.606.266.913.393 13.882 5.775 31.943 4.634 37.733 2.403a1.828 1.828 0 0 0 1.052-2.368 1.835 1.835 0 0 0-2.369-1.051c-4.751 1.833-22.679 3.114-35.842-2.725a1.838 1.838 0 0 0-.741-.157z" fill="#112c41"/><circle cx="484.928" cy="584.678" fill="#ffe993" r="8.5"/><path d="M485.253 587.937c14.385 5.223 34.333 1.819 40.268-.787a2.832 2.832 0 0 0-2.278-5.186c-4.556 2.001-23.718 5.467-36.884.338a2.832 2.832 0 1 0-2.06 5.276c.316.123.634.244.954.36z" fill="#fff"/><path d="M503.015 591.669c-6.074 0-12.462-.744-18.104-2.792a38.327 38.327 0 0 1-.977-.368c-.953-.372-1.705-1.093-2.116-2.031s-.432-1.979-.06-2.933a3.842 3.842 0 0 1 4.962-2.177c13.11 5.109 31.934 1.518 36.119-.321 1.936-.85 4.2.034 5.051 1.968.411.937.433 1.979.062 2.932a3.806 3.806 0 0 1-2.03 2.117c-3.484 1.53-12.762 3.603-22.907 3.603zm-17.683-8.56a1.834 1.834 0 0 0-1.682 2.567 1.82 1.82 0 0 0 1.011.971c.31.121.62.238.932.351 14.535 5.276 34.163 1.592 39.524-.763.448-.197.794-.557.972-1.013s.167-.954-.03-1.402a1.835 1.835 0 0 0-2.415-.941c-4.368 1.919-23.998 5.672-37.648.354a1.841 1.841 0 0 0-.663-.125z" fill="#112c41"/><path d="M323.121 609.176a833.018 833.018 0 0 0-1.264-39.089v-.218c-.008-.085-.006-.167-.009-.231-.743-13.328-1.449-26.267-2.161-37.561 0 0 93.691-1.84 143.988-9.096.492 12.593.113 23.258.084 36.597-.045 22.933-.146 42.517-.146 42.517l-140.493 7.081z" fill="#ffd6c0"/><path d="m334.831 523.136 4.044 85.407c-3.798 2.771-11.106 8.221-13.936 9.632-1.804-34.084-4.856-91.222-4.856-91.222z" fill="#f5b9ab"/><path d="M323.122 610.176a1.002 1.002 0 0 1-1-.991c-.116-13.114-.518-25.52-1.263-39.042l-.003-.26a1.596 1.596 0 0 1-.006-.15l-.274-4.96c-.649-11.693-1.263-22.737-1.887-32.631a1.001 1.001 0 0 1 .979-1.063c.937-.018 94.204-1.922 143.865-9.086a1.003 1.003 0 0 1 1.141.95c.347 8.868.262 16.86.172 25.321-.038 3.617-.078 7.349-.087 11.318-.044 22.671-.145 42.324-.146 42.52a1 1 0 0 1-.949.993l-140.492 7.081-.051.001zm-2.371-77.121c.602 9.632 1.195 20.317 1.822 31.605l.273 4.922.004.118c.002.022.006.133.006.156v.231a825.207 825.207 0 0 1 1.256 38.038l138.507-6.98c.021-4.189.102-21.722.141-41.568.009-3.975.049-7.713.087-11.334.086-8.081.167-15.733-.129-24.114-47.159 6.646-131.604 8.697-141.967 8.927z" fill="#112c41"/><path d="M529.479 680.658c-48.255 16.991-112.672 16.384-166.868 7.016-15.799-2.735-30.728-6.203-44.134-10.208 0 0 3.659-42.598 4.645-68.289l11.349-.54s128.803-6.439 129.143-6.54c9.977 5.047 55.353 30.945 65.865 78.563z" fill="#ffa9dc"/><path d="M318.477 677.465s3.659-42.598 4.645-68.289l14.019 1.861c2.022 22.381 4.648 57.397 15.302 74.932.112.184-20.56-4.499-33.966-8.504z" fill="#ff90d8"/><path d="M436.853 695.15c-24.012 0-49.265-2.144-74.412-6.491-15.766-2.729-30.653-6.173-44.25-10.235a1 1 0 0 1-.71-1.043c.036-.426 3.667-42.87 4.642-68.243a.999.999 0 0 1 .951-.96l11.349-.541c1.268-.063 126.721-6.335 129.064-6.533.198-.024.399.009.578.1 9.192 4.65 55.592 30.321 66.39 79.24.108.493-.168.991-.645 1.159-25.479 8.972-57.89 13.549-92.957 13.549zm-117.311-18.411c13.31 3.939 27.853 7.285 43.239 9.949 61.149 10.57 122.93 8.068 165.524-6.68-11.074-47.906-58.463-73.604-64.925-76.909-2.639.172-19.326 1.06-128.861 6.535l-10.436.497c-.946 23.534-4.04 60.662-4.542 66.608z" fill="#112c41"/><path d="M442.637 697.278a2.5 2.5 0 0 1-2.315-1.556c-4.675-11.454-13.792-24.981-45.968-38.467-27.69-11.607-38.849-26.139-41.17-53.618a2.501 2.501 0 0 1 4.982-.421c2.162 25.602 12.138 38.536 38.121 49.427 26.934 11.29 41.487 23.608 48.663 41.189a2.5 2.5 0 0 1-2.313 3.445z" fill="#fff"/><path d="M532.942 703.551c.026 1.597-.502 3.03-1.889 4.145-25.267 20.318-148.335 22.095-207.877.577-5.1-1.843-6.179-4.833-6.371-8.151l1.672-22.657c59.418 17.733 148.683 25.132 211.002 3.193 1.904 7.784 3.344 15.681 3.463 22.893z" fill="#fff"/><path d="M436.319 724.687c-44.339 0-86.537-5.734-113.483-15.473-5.855-2.117-6.84-5.754-7.029-9.034a.97.97 0 0 1 0-.132l1.673-22.657a.998.998 0 0 1 1.284-.885c57.215 17.075 147.454 25.362 210.383 3.207a1 1 0 0 1 1.304.706c2.244 9.175 3.387 16.736 3.492 23.115.033 2.044-.728 3.707-2.263 4.941-12.031 9.674-47.17 15.881-91.705 16.198-1.218.009-2.44.013-3.655.013zm-118.513-24.558c.195 3.159 1.254 5.594 5.709 7.204 61.464 22.213 182.977 18.832 206.91-.416 1.044-.839 1.54-1.935 1.517-3.35-.099-5.98-1.139-13.056-3.177-21.603-62.862 21.695-152.131 13.642-209.382-3.189l-1.577 21.353z" fill="#112c41"/><path d="M323.122 609.172c42.218 7.741 102.595 3.687 140.492-7.076 0 0 .005-16.11.134-36.163.006-.695.006-1.398.006-2.101s0-1.406.007-2.115c0-.703 0-1.42.002-2.137-35.226 9.423-92.827 12.372-141.915 9.773 0 0 .005.1.003.284.001.064-.006.148.008.228 0 .078-.006.149.001.22a833.384 833.384 0 0 1 1.262 39.087z" fill="#fff"/><path d="M373.378 614.157c-18.216 0-35.7-1.3-50.437-4.002a.998.998 0 0 1-.819-.975c-.115-13.083-.516-25.488-1.26-39.041a1.787 1.787 0 0 1-.005-.227c-.007-.078-.008-.155-.007-.227.002-.196 0-.273 0-.288a1.004 1.004 0 0 1 .296-.755.97.97 0 0 1 .756-.29c53.345 2.824 108.926-1 141.604-9.74a1 1 0 0 1 1.259.967l-.002 2.135c-.008.717-.008 1.416-.008 2.115v.234c0 .628 0 1.255-.006 1.876a6835.081 6835.081 0 0 0-.134 36.154.999.999 0 0 1-.727.961c-25.44 7.226-59.066 11.1-90.51 11.1zm-49.264-5.822c39.667 7.083 98.847 4.098 138.501-6.997.003-3.421.021-18.013.133-35.412.006-.618.006-1.239.006-1.86v-.234c0-.707 0-1.413.008-2.126v-.828c-32.794 8.498-87.358 12.221-139.883 9.53a829.264 829.264 0 0 1 1.235 37.928z" fill="#112c41"/><circle cx="451.393" cy="630.52" fill="#ffe993" r="8.5"/><path d="M452.756 633.138c15.3-.339 31.577-8.779 36.165-13.357a2.833 2.833 0 0 0-4.001-4.011c-3.523 3.515-19.044 11.729-33.174 11.713a2.832 2.832 0 0 0-.01 5.664c.339 0 .68-.003 1.019-.01z" fill="#fff"/><path d="M451.85 634.148h-.116a3.837 3.837 0 0 1-3.824-3.838 3.84 3.84 0 0 1 3.835-3.826c.013.003.029 0 .042 0 13.843 0 29-8.001 32.428-11.421a3.837 3.837 0 0 1 5.42.006 3.837 3.837 0 0 1-.007 5.42c-4.721 4.709-21.072 13.297-36.848 13.648-.311.007-.621.011-.93.011zm-.105-5.664c-1.01 0-1.833.82-1.835 1.829 0 1.01.819 1.833 1.829 1.835.323.002.663-.002.994-.01 15.031-.333 31.088-8.683 35.481-13.065.715-.713.717-1.876.003-2.592s-1.876-.716-2.592-.002c-3.603 3.594-19.453 12.004-33.84 12.005h-.042z" fill="#112c41"/><circle cx="468.608" cy="651.164" fill="#ffe993" r="8.5"/><path d="M470.223 654.013c15.269-1.042 32.135-12.223 36.509-17.007a2.834 2.834 0 0 0-4.181-3.823c-3.357 3.673-19.48 14.594-33.596 15.228a2.832 2.832 0 1 0 .251 5.659c.339-.015.679-.034 1.018-.057z" fill="#fff"/><path d="M469.079 655.073a3.837 3.837 0 0 1-3.827-3.663 3.84 3.84 0 0 1 3.658-3.998c14.057-.631 29.818-11.529 32.903-14.904a3.812 3.812 0 0 1 2.657-1.243 3.826 3.826 0 0 1 2.757 1 3.809 3.809 0 0 1 1.243 2.657 3.809 3.809 0 0 1-1 2.757c-4.104 4.49-21.191 16.239-37.179 17.33-.347.023-.693.043-1.04.059-.058.002-.115.004-.172.004zm35.566-21.811c-.028 0-.057 0-.084.002-.489.022-.94.233-1.271.594-3.22 3.522-19.655 14.895-34.29 15.552a1.837 1.837 0 0 0-1.75 1.912 1.835 1.835 0 0 0 1.912 1.749c.33-.015.663-.033.994-.056 15.426-1.053 31.888-12.362 35.838-16.685.33-.361.5-.829.479-1.318a1.821 1.821 0 0 0-.595-1.271 1.819 1.819 0 0 0-1.233-.48z" fill="#112c41"/><path d="M530.513 469.781s-59.06-16.62-67.06-21.62c2 29 .47 80.32.47 80.32s-36.47 9.68-84.47 9.68c-19.41 0-36.76-.81-49.97-1.71-3.94-.26-7.5-.54-10.65-.8-8.69-.72-15.39-7.93-15.49-16.65-.12-10.75-.37-27.12-.89-48.84-1-42-9-140.01-66-165-59.74-26.2-85.86-13.03-167-51-55.1-25.78-88.62-105.76-55-173 16.29-32.57 40.12-57.1 75.71-70 36.53-13.23 85.44-14.2 151.29 1 130 30 274 100 310 215s-20.94 242.62-20.94 242.62z" fill="#b2b0f7"/><path d="M379.453 539.161c-16.524 0-33.359-.576-50.038-1.712-4.31-.285-8.15-.594-10.664-.801-9.247-.766-16.301-8.347-16.408-17.635-.111-9.969-.356-26.531-.89-48.828-.547-22.981-3.066-57.013-11.963-88.632-11.084-39.396-29.063-64.79-53.438-75.476-26.652-11.689-46.632-15.52-67.784-19.576-26.708-5.121-54.325-10.417-99.238-31.434-27.637-12.931-50.007-39.089-61.374-71.769-12.01-34.521-9.913-70.953 5.902-102.584 17.614-35.218 42.561-58.277 76.264-70.493 38.679-14.009 88.352-13.692 151.855.965 50.414 11.634 124.396 34.22 190.557 75.752 63.07 39.593 103.502 86.669 120.173 139.923 18.661 59.611 11.961 122.598 3.055 164.94-9.646 45.854-23.894 78.066-24.036 78.387a1 1 0 0 1-1.184.555c-2.291-.645-53.49-15.082-65.674-20.861 1.803 29 .369 78.125.354 78.628a1.002 1.002 0 0 1-.743.937c-.366.097-37.146 9.714-84.727 9.714zM154.757 1.946c-24.257 0-45.562 3.385-64.254 10.155C57.305 24.134 32.721 46.87 15.347 81.609-.225 112.753-2.287 148.633 9.544 182.641c11.191 32.173 33.183 57.911 60.333 70.614 44.688 20.912 72.18 26.184 98.767 31.281 21.267 4.078 41.354 7.93 68.211 19.708 24.95 10.938 43.307 36.767 54.562 76.766 8.952 31.819 11.487 66.03 12.037 89.126.533 22.307.778 38.879.89 48.853.095 8.25 6.36 14.984 14.573 15.665 2.507.207 6.336.515 10.634.799a737.627 737.627 0 0 0 49.903 1.708c43.646 0 78.133-8.13 83.491-9.463.178-6.464 1.354-52.755-.489-79.468a1.001 1.001 0 0 1 1.528-.917c7.274 4.547 58.723 19.217 65.96 21.268 2.23-5.209 14.808-35.554 23.571-77.238 8.85-42.096 15.511-104.7-3.016-163.883C505.742 84.486 302.463 27.267 241.228 13.135 208.911 5.676 180.21 1.946 154.757 1.946z" fill="#112c41"/><path d="M329.483 536.451c-3.94-.26-7.5-.54-10.65-.8-8.69-.72-15.39-7.93-15.49-16.65-.12-10.75-.37-27.12-.89-48.84-1-42-9-140.01-66-165-59.74-26.2-85.86-13.03-167-51-55.1-25.78-88.62-105.76-55-173 16.29-32.57 40.12-57.1 75.71-70 .01.01.02.01.02.01-58.73 42.99-75.73 108.99-56.73 161.99 17.889 49.9 72.413 78.894 129 88 87 14 117 44 132 84 18.126 48.337 22 109 22 142s13.03 49.29 13.03 49.29z" fill="#9797f7"/><g fill="#112c41"><path d="M379.453 539.161a748.37 748.37 0 0 1-60.698-2.509c-9.253-.768-16.31-8.352-16.414-17.641-.113-10.024-.358-26.632-.888-48.826-.547-22.982-3.066-57.014-11.962-88.63-11.084-39.395-29.063-64.79-53.439-75.478-26.65-11.686-46.629-15.518-67.781-19.574-26.709-5.122-54.327-10.419-99.241-31.437-27.639-12.934-50.01-39.094-61.377-71.774-12.007-34.517-9.909-70.948 5.905-102.578 37.363-74.727 109.847-96.82 228.119-69.527 50.414 11.634 124.396 34.22 190.557 75.753 63.07 39.592 103.502 86.669 120.173 139.923 18.661 59.611 11.961 122.597 3.054 164.938-9.646 45.853-23.895 78.065-24.037 78.385a1.003 1.003 0 0 1-1.184.555c-2.291-.645-53.493-15.08-65.672-20.858 1.803 29 .373 78.124.358 78.627a1.002 1.002 0 0 1-.743.937c-.366.097-37.15 9.715-84.73 9.715zM154.711 1.959c-67.505 0-112.609 26.139-139.364 79.65-15.572 31.143-17.634 67.022-5.805 101.027 11.19 32.174 33.182 57.914 60.335 70.62 44.688 20.912 72.182 26.185 98.771 31.284 21.266 4.078 41.352 7.93 68.207 19.706 24.951 10.941 43.308 36.769 54.562 76.768 8.952 31.817 11.487 66.028 12.037 89.124.529 22.204.774 38.821.888 48.851.093 8.252 6.36 14.989 14.58 15.67a745.812 745.812 0 0 0 60.532 2.502c43.646 0 78.137-8.131 83.495-9.464.177-6.463 1.35-52.754-.493-79.467a1.001 1.001 0 0 1 1.528-.917c7.274 4.547 58.721 19.214 65.958 21.265 2.231-5.209 14.808-35.554 23.572-77.236 8.851-42.096 15.512-104.699-3.015-163.882C505.742 84.486 302.463 27.267 241.228 13.136c-32.189-7.428-60.964-11.177-86.517-11.177z"/><path d="M464.016 460.134a1 1 0 0 1-1-.979c-.016-.738-1.791-74.598-21.521-139.704-21.503-70.96-67.121-171.317-214.376-223.347a1 1 0 1 1 .666-1.886c66.323 23.434 118.918 59.167 156.323 106.204 33.898 42.626 50.079 88.016 59.301 118.449C463.22 384.246 465 458.372 465.015 459.113a1 1 0 0 1-.979 1.021h-.021z"/></g></svg></g><g transform="translate(719.0 205.0) rotate(0.0 395.0 273.0) scale(1.0 1.0)"><svg width="790" height="546" viewBox="0 0 790 546"><rect fill="#fff" height="544" rx="42.57" width="788" x="1" y="1"/><path d="M746.431 546H43.57C19.546 546 0 526.455 0 502.43V43.57C0 19.546 19.546 0 43.57 0h702.861C770.455 0 790 19.546 790 43.57v458.86c0 24.025-19.545 43.57-43.569 43.57zM43.57 2C20.648 2 2 20.648 2 43.57v458.86C2 525.352 20.648 544 43.57 544h702.861C769.353 544 788 525.352 788 502.43V43.57C788 20.648 769.353 2 746.431 2z" fill="#112c41"/><path d="M789 43.57V87H1V43.57C1 20.06 20.06 1 43.57 1h702.86C769.94 1 789 20.06 789 43.57z" fill="#cbc8ff"/><path d="M789 88H1a1 1 0 0 1-1-1V43.57C0 19.546 19.546 0 43.57 0h702.861C770.455 0 790 19.546 790 43.57V87a1 1 0 0 1-1 1zM2 86h786V43.57C788 20.648 769.353 2 746.431 2H43.57C20.648 2 2 20.648 2 43.57z" fill="#112c41"/><path d="M662.474 61h-24.992a4.008 4.008 0 0 1-4.004-4.004V32.004A4.008 4.008 0 0 1 637.482 28h24.992a4.008 4.008 0 0 1 4.004 4.004v24.992A4.008 4.008 0 0 1 662.474 61zm-24.992-31a2.007 2.007 0 0 0-2.004 2.004v24.992c0 1.105.899 2.004 2.004 2.004h24.992a2.007 2.007 0 0 0 2.004-2.004V32.004A2.006 2.006 0 0 0 662.474 30zM602 61h-31a1 1 0 1 1 0-2h31a1 1 0 1 1 0 2zm128.318 0a.997.997 0 0 1-.707-.293l-31-31a.999.999 0 1 1 1.414-1.414l31 31a.999.999 0 0 1-.707 1.707z" fill="#112c41"/><path d="M699.318 61a.999.999 0 0 1-.707-1.707l31-31a.999.999 0 1 1 1.414 1.414l-31 31a.997.997 0 0 1-.707.293z" fill="#112c41"/><circle cx="105.5" cy="157.5" fill="#9797f7" r="9.5"/><circle cx="105.5" cy="212.5" fill="#9797f7" r="9.5"/><circle cx="105.5" cy="267.5" fill="#9797f7" r="9.5"/><circle cx="105.5" cy="322.5" fill="#9797f7" r="9.5"/><circle cx="105.5" cy="377.5" fill="#9797f7" r="9.5"/><g fill="#112c41"><path d="M156.5 168.5a.997.997 0 0 1-.707-.293l-9.5-9.5a.999.999 0 0 1 0-1.414l10.5-10.5a.999.999 0 1 1 1.414 1.414L148.414 158l8.793 8.793a.999.999 0 0 1-.707 1.707zm150.5 0a.999.999 0 0 1-.707-1.707l8.793-8.793-9.793-9.793a.999.999 0 1 1 1.414-1.414l10.5 10.5a.999.999 0 0 1 0 1.414l-9.5 9.5a.997.997 0 0 1-.707.293zM296 158H167a1 1 0 1 1 0-2h129a1 1 0 1 1 0 2zm-139.5 65.5a.997.997 0 0 1-.707-.293l-9.5-9.5a.999.999 0 0 1 0-1.414l10.5-10.5a.999.999 0 1 1 1.414 1.414L148.414 213l8.793 8.793a.999.999 0 0 1-.707 1.707zm95.5 0a.999.999 0 0 1-.707-1.707l8.793-8.793-9.793-9.793a.999.999 0 1 1 1.414-1.414l10.5 10.5a.999.999 0 0 1 0 1.414l-9.5 9.5a.997.997 0 0 1-.707.293zM242 213h-75a1 1 0 1 1 0-2h75a1 1 0 1 1 0 2zm-15.5 65.5a.997.997 0 0 1-.707-.293l-9.5-9.5a.999.999 0 0 1 0-1.414l10.5-10.5a.999.999 0 1 1 1.414 1.414L218.414 268l8.793 8.793a.999.999 0 0 1-.707 1.707zm337.5 0a.999.999 0 0 1-.707-1.707l8.793-8.793-9.793-9.793a.999.999 0 1 1 1.414-1.414l10.5 10.5a.999.999 0 0 1 0 1.414l-9.5 9.5a.997.997 0 0 1-.707.293zM551 268H237a1 1 0 1 1 0-2h314a1 1 0 1 1 0 2zm-324.5 65.5a.997.997 0 0 1-.707-.293l-9.5-9.5a.999.999 0 0 1 0-1.414l10.5-10.5a.999.999 0 1 1 1.414 1.414L218.414 323l8.793 8.793a.999.999 0 0 1-.707 1.707zm455.5 0a.999.999 0 0 1-.707-1.707l8.793-8.793-9.793-9.793a.999.999 0 1 1 1.414-1.414l10.5 10.5a.999.999 0 0 1 0 1.414l-9.5 9.5a.997.997 0 0 1-.707.293zM671 323H237a1 1 0 1 1 0-2h434a1 1 0 1 1 0 2zm-444.5 65.5a.997.997 0 0 1-.707-.293l-9.5-9.5a.999.999 0 0 1 0-1.414l10.5-10.5a.999.999 0 1 1 1.414 1.414L218.414 378l8.793 8.793a.999.999 0 0 1-.707 1.707zm218.5 0a.999.999 0 0 1-.707-1.707l8.793-8.793-9.793-9.793a.999.999 0 1 1 1.414-1.414l10.5 10.5a.999.999 0 0 1 0 1.414l-9.5 9.5a.997.997 0 0 1-.707.293zM435 378H237a1 1 0 1 1 0-2h198a1 1 0 1 1 0 2z"/></g></svg></g><g transform="translate(283.0 584.0) rotate(0.0 378.0 177.5) scale(0.9990564466892379 0.9986974734360538)"><svg width="756.714" height="355.463" viewBox="0 0 756.714 355.463"><path d="M604.714 154.97c-15 28-43 78-59 76-4.74-.59-12.37-1.97-20.77-3.63-19.96-3.92-44.23-9.37-44.23-9.37l-281-28s-5.55 4.84-12.24 10.08c-7.54 5.91-16.54 12.32-20.76 12.92-14 2-48-22-82-50-21.12-17.39-39.53-36.71-48.77-53.17-5.65-10.04-7.88-19.01-5.23-25.83 2.52-6.47 17.97-19.9 46.1-34.11 46.33-23.4 127.1-48.9 241.25-48.86h1.1c12.14.02 24.66.33 37.55.97 11.12.54 21.8 1.18 32.06 1.9 105.72 7.42 166.8 23.6 200.33 37.04 22.93 9.19 32.98 17.1 35.61 20.06 8 9-5 66-20 94z" fill="#ffe993"/><path d="M546.642 232.027c-.355 0-.706-.021-1.052-.064-4.328-.539-11.34-1.764-20.839-3.641-19.269-3.784-42.846-9.06-44.197-9.362l-280.511-27.951a345.268 345.268 0 0 1-11.953 9.83c-10.448 8.19-17.594 12.605-21.235 13.123a13.1 13.1 0 0 1-1.85.125c-13.138.001-40.336-16.915-80.927-50.343C61.294 144.984 43.89 126 35.072 110.291c-6.146-10.92-7.926-19.897-5.29-26.682 2.595-6.662 18.278-20.343 46.581-34.64C112.609 30.661 192.211-.049 318.065 0h1.1c12.381.021 25.031.347 37.6.971 10.759.523 21.553 1.163 32.081 1.901 108.261 7.598 168.859 24.374 200.632 37.109 27.061 10.845 35.151 19.386 35.985 20.324 8.563 9.635-4.944 67.281-19.866 95.136-17.718 33.073-42.914 76.584-58.954 76.584zM199.714 188.97c.033 0 .066.001.1.005l281 28c.04.004.08.011.119.02.243.054 24.486 5.492 44.204 9.364 9.454 1.868 16.419 3.086 20.701 3.619.283.035.573.053.865.053 16.664.007 47.032-56.686 57.129-75.533 15.518-28.965 27.561-84.51 20.135-92.863-2.909-3.273-13.603-11.126-35.234-19.796-31.64-12.682-92.025-29.391-200.028-36.971a1490.7 1490.7 0 0 0-32.039-1.898 784.72 784.72 0 0 0-37.503-.969h-1.368c-125.297 0-204.467 30.539-240.528 48.753-27.833 14.06-43.159 27.263-45.62 33.58-2.408 6.198-.668 14.602 5.17 24.977 8.7 15.499 25.937 34.281 48.534 52.888 41.559 34.225 69.669 51.435 81.223 49.782 3.198-.455 10.401-4.971 20.284-12.717 6.592-5.163 12.145-9.999 12.2-10.046a.999.999 0 0 1 .657-.247z" fill="#112c41"/><path d="M320.714 6.97c-70-3-213 29-269 84-6.02 5.91-11.22 12.28-15.77 18.83-5.65-10.04-7.88-19.01-5.23-25.83 2.52-6.47 17.97-19.9 46.1-34.11 46.33-23.4 127.1-48.9 241.25-48.86h1.1c.93 3.37 1.55 5.97 1.55 5.97z" fill="#ffd169"/><path d="M187.474 200.05c-7.54 5.91-16.54 12.32-20.76 12.92-14 2-48-22-82-50s-61-61-54-79c2.52-6.47 9-12 35-28 47 14 101.39 66.65 111 104 3.36 13.06 7.5 31.05 10.76 40.08zm417.24-45.08c-15 28-43 78-59 76-4.74-.59-17.6-2.34-26-4 2.99-10.73 13-39 15-57 5.742-51.682 32.37-107.98 54.39-129.06 22.93 9.19 32.98 17.1 35.61 20.06 8 9-5 66-20 94z" fill="#fff"/><path d="M546.642 232.027c-.355 0-.706-.021-1.052-.064-15.611-1.951-63.06-12.561-65.035-13.003l-280.511-27.951c-3.109 2.696-25.421 21.842-33.188 22.952-.582.083-1.199.125-1.85.125-13.139.001-40.337-16.915-80.928-50.343-31.292-25.77-61.988-60.354-54.296-80.134 3.487-8.962 29.979-29.935 77.957-48.505C149.122 19.084 219.151 0 317.814 0h.251c12.711 0 25.731.327 38.699.972 10.759.522 21.553 1.162 32.081 1.901 75.565 5.306 136.981 15.586 182.543 30.555 33.656 11.058 49.825 22.098 54.073 26.878 8.564 9.635-4.943 67.282-19.865 95.136-17.718 33.073-42.914 76.584-58.954 76.584zM199.714 188.97c.033 0 .066.001.1.005l281 28c.04.004.08.011.119.02.49.11 49.136 11.012 64.905 12.983.283.035.574.053.865.053 16.664.007 47.032-56.686 57.129-75.533 15.518-28.965 27.561-84.509 20.135-92.863-.382-.43-40.401-43.084-235.263-56.767a1490.7 1490.7 0 0 0-32.039-1.898c-13.016-.647-26.115-.944-38.851-.969-98.364 0-168.127 19.01-209.354 34.968-46.89 18.148-73.557 38.992-76.814 47.364-6.019 15.478 15.062 46.042 53.704 77.865 41.559 34.225 69.669 51.435 81.223 49.782 6.08-.869 23.906-15.27 32.483-22.763.184-.16.417-.247.658-.247z" fill="#112c41"/><path d="M535.194 167.82c-3.85 50.59-28.62 95.34-65.67 125.61-31.01 25.34-70.63 40.54-113.81 40.54-97.04 0-176.15-76.8-179.87-172.93-.08-2.35-.13-4.7-.13-7.07z" fill="#ffe993"/><path d="M469.524 293.43c-31.01 25.34-70.63 40.54-113.81 40.54-97.04 0-176.15-76.8-179.87-172.93 14.1 4.09 34.191 12.742 42.87 27.93 8 14 19 91 95 120 56.61 21.601 117 9 155.81-15.54z" fill="#ffd169"/><path d="M355.714 334.97c-99.804 0-181-81.196-181-181a1 1 0 1 1 2 0c0 98.701 80.299 179 179 179 93.032 0 171.43-72.577 178.479-165.229a.989.989 0 0 1 1.073-.921 1 1 0 0 1 .921 1.073c-3.451 45.362-23.756 87.477-57.173 118.585-33.591 31.271-77.38 48.492-123.3 48.492zm-191.52-133.63c-1.84 2.03-7.64.2-16.05-4.58-13.64-7.76-34.12-23.3-55.63-42.78-22.41-20.3-40.47-39.91-49.18-52.71-4.8-7.05-6.76-12.04-5.05-13.93 1.68-1.86 6.66-.49 13.92 3.41 13.58 7.28 35.1 23.43 57.76 43.95 21.42 19.4 38.86 38.17 47.97 50.97 5.67 7.97 8.11 13.63 6.26 15.67z" fill="#112c41"/><path d="M161.853 203.147c-3.016 0-7.715-1.831-14.202-5.518-14.192-8.074-35.055-24.114-55.808-42.908-21.787-19.736-40.23-39.508-49.336-52.889-5.398-7.929-7.022-12.889-4.964-15.163 2.017-2.233 6.966-1.189 15.135 3.2 14.226 7.626 35.893 24.109 57.957 44.09 20.655 18.707 38.641 37.821 48.113 51.131 6.37 8.952 8.394 14.487 6.188 16.921-.686.756-1.71 1.136-3.083 1.136zM40.66 87.519c-1.024 0-1.46.298-1.634.491-.471.52-1.488 2.97 5.134 12.697 9.021 13.258 27.349 32.896 49.024 52.532 20.651 18.702 41.382 34.646 55.454 42.652 9.317 5.296 13.763 5.94 14.814 4.778 1.063-1.173-.043-5.576-6.334-14.419-9.394-13.199-27.272-32.193-47.826-50.808-21.951-19.878-43.47-36.255-57.562-43.81-6.183-3.321-9.405-4.112-11.071-4.112z" fill="#112c41"/><ellipse cx="514.273" cy="231.74" fill="#ffd6c0" rx="17.98" ry="33.846" transform="matrix(.07621436 -.99709146 .99709146 .07621436 244.012 726.855)"/><path d="M517.788 250.856c-1.635 0-3.292-.063-4.962-.191-9.174-.701-17.669-3.268-23.92-7.227-6.443-4.081-9.773-9.178-9.378-14.354s4.462-9.708 11.45-12.762c6.78-2.964 15.573-4.212 24.74-3.508 9.175.701 17.67 3.268 23.921 7.227 6.442 4.081 9.772 9.178 9.377 14.354s-4.462 9.708-11.45 12.762c-5.545 2.424-12.434 3.699-19.778 3.699zm-7.043-36.232c-7.065 0-13.67 1.217-18.966 3.532-6.277 2.744-9.92 6.679-10.257 11.082s2.666 8.846 8.453 12.512c5.98 3.787 14.149 6.246 23.003 6.922 8.854.676 17.302-.511 23.787-3.346 6.277-2.744 9.92-6.679 10.257-11.082s-2.666-8.846-8.453-12.512c-5.979-3.787-14.148-6.246-23.003-6.922a63.368 63.368 0 0 0-4.821-.186zM616.814 77.35c-2.23 14.94-10.85 41.34-23.52 70.4-11.1 25.43-22.82 47.19-31.91 60.14-6.27 8.94-11.29 13.67-13.98 12.5-2.57-1.12-2.63-7.47-.63-17.36 3.12-15.43 11.25-39.48 22.69-65.68 12.73-29.18 26.28-53.53 35.74-65.27 4.47-5.56 8.03-8.29 10.14-7.37 2.13.93 2.54 5.46 1.47 12.64z" fill="#112c41"/><path d="M548.275 221.565c-.451 0-.873-.086-1.269-.258-3.061-1.333-3.456-7.376-1.212-18.475 3.248-16.06 11.754-40.689 22.754-65.882 12.306-28.208 26.054-53.306 35.878-65.498 5.043-6.273 8.742-8.783 11.317-7.659 2.592 1.131 3.266 5.614 2.061 13.704-2.316 15.514-11.356 42.586-23.593 70.652-10.793 24.726-22.459 46.709-32.009 60.315-6.162 8.787-10.741 13.101-13.928 13.101zM614.472 65.54c-1.025 0-3.483.941-8.488 7.166-9.721 12.064-23.362 36.987-35.603 65.043-10.947 25.071-19.405 49.549-22.626 65.479-2.224 10.993-1.433 15.599.049 16.245 1.569.68 5.743-2.15 12.762-12.158 9.476-13.501 21.071-35.357 31.813-59.966 12.171-27.916 21.155-54.795 23.447-70.147 1.452-9.75-.308-11.326-.882-11.576a1.183 1.183 0 0 0-.472-.086z" fill="#112c41"/><path d="M755.714 225.97c0 90-89.06 108.25-134 112-36 3-76-7-101.56-2.93-27.27 4.33-39.47 3.26-36.59-13.87-16.41 2.89-21.43-21.83-3.35-40.97-11.05 5.02-20.11 3.35-22.31-4.43-4.62-16.31 22.81-46.8 71.81-49.8 12.4-.76 32.06-.95 49.48-3.64 2.57-.4 5.08-.85 7.52-1.36-5.87-5.03-15.79-9.54-25.33-13.08-5.23-1.93-10.34-3.58-14.61-4.86 1.54-7.62 4.3-17.33 8.07-28.37 3.88-11.32 8.83-24.04 14.62-37.31 12.73-29.18 26.28-53.53 35.74-65.27 3.63 1.58 7.52 3.34 11.61 5.27 52.77 24.95 138.9 78.42 138.9 148.62z" fill="#ffd6c0"/><path d="M606.993 339.546c-13.284 0-26.715-1.227-39.822-2.424-17.558-1.604-34.143-3.119-46.859-1.094-17.789 2.825-29.877 3.504-35.166-1.832-2.548-2.572-3.457-6.459-2.766-11.859-5.355.483-9.82-1.887-12.384-6.645-4.099-7.609-2.878-20.985 6.781-33.065-5.529 1.834-10.457 1.922-14.151.208-2.833-1.314-4.799-3.664-5.684-6.793-1.586-5.597.31-12.584 5.337-19.674 9.772-13.782 32.604-29.267 67.373-31.396 3.158-.194 6.829-.353 10.715-.52 11.465-.496 25.733-1.112 38.675-3.11 1.85-.288 3.649-.6 5.374-.931-5.07-3.812-12.92-7.702-23.38-11.583a247.483 247.483 0 0 0-14.549-4.839.999.999 0 0 1-.693-1.156c1.543-7.635 4.346-17.489 8.104-28.495 3.984-11.626 9.051-24.554 14.649-37.387 12.307-28.208 26.055-53.306 35.879-65.498a1.003 1.003 0 0 1 1.178-.29 423.524 423.524 0 0 1 11.638 5.283c41.936 19.828 139.473 74.089 139.473 149.524 0 39.571-17.039 69.585-50.644 89.208-27.673 16.159-61.103 21.855-84.273 23.789-4.896.408-9.841.58-14.804.58zm-72.324-6.492c9.959 0 21.111 1.019 32.684 2.076 17.919 1.637 36.449 3.33 54.278 1.843 49.702-4.147 133.083-24.083 133.083-111.003 0-74.292-96.736-128.051-138.327-147.716a425.572 425.572 0 0 0-10.879-4.951c-9.687 12.274-23.085 36.843-35.127 64.446-5.578 12.784-10.624 25.66-14.591 37.234-3.586 10.5-6.291 19.93-7.852 27.353a248.141 248.141 0 0 1 13.792 4.615c11.893 4.413 20.518 8.874 25.634 13.259a.998.998 0 0 1-.447 1.738c-2.374.496-4.921.957-7.569 1.369-13.052 2.015-27.381 2.634-38.895 3.132-3.877.167-7.539.326-10.679.518-34.065 2.085-56.359 17.152-65.864 30.556-4.671 6.586-6.462 12.969-5.045 17.973.732 2.589 2.28 4.447 4.602 5.524 3.937 1.826 9.89 1.196 16.332-1.732a1 1 0 0 1 1.141 1.598c-11.465 12.137-13.298 26.219-9.184 33.856 2.376 4.412 6.51 6.344 11.634 5.442a1.003 1.003 0 0 1 1.16 1.151c-.911 5.418-.252 9.164 2.016 11.453 4.67 4.712 16.742 3.915 33.431 1.264 4.481-.713 9.41-.998 14.672-.998z" fill="#112c41"/><ellipse cx="287.573" cy="240.195" fill="#ffd6c0" rx="33.846" ry="19.009" transform="matrix(.85170864 -.52401564 .52401564 .85170864 -83.221 186.311)"/><path d="M273.028 265.161c-6.826 0-12.373-2.22-15.134-6.706-2.858-4.646-2.369-10.915 1.378-17.653 3.645-6.555 9.973-12.823 17.815-17.648 16.364-10.069 34.382-10.615 40.164-1.218 5.781 9.397-2.829 25.233-19.193 35.302l-.524-.852.524.852c-8.552 5.262-17.558 7.923-25.03 7.923zm29.158-48.01c-7.068 0-15.755 2.602-24.05 7.706-7.557 4.649-13.636 10.657-17.117 16.917-3.38 6.078-3.885 11.63-1.422 15.633 5.203 8.458 21.988 7.617 37.412-1.873 15.426-9.491 23.742-24.093 18.539-32.551-2.405-3.909-7.286-5.833-13.362-5.833zm178.466 63.74a1 1 0 0 1-.692-1.723c14.426-13.794 25.451-18 33.502-21.071a1.001 1.001 0 0 1 1.291.578 1.002 1.002 0 0 1-.578 1.291c-10.23 3.902-19.762 8.149-32.832 20.647a.993.993 0 0 1-.691.277zm3.359 40.974a1 1 0 0 1-.924-1.384c8.979-21.607 33.99-29.458 41.441-31.35a1 1 0 1 1 .492 1.938c-7.224 1.834-31.464 9.429-40.086 30.179-.16.384-.532.617-.924.617z" fill="#112c41"/><path d="M360.714 296.97c-4.47 8.94-20 4-36.43-4.42 16.48 24.3 6.07 43.38-2.61 43.38 3.47 19.09-16.48 21.69-33.83 15.62-6.68-2.34-13.08-3.52-20.12-4.07-7.229-.56-16.65-.63-28.29-.54-18.93.13-43.76.65-74.72.03-50-1-133-24-159-110-16.41-54.29 13.4-105.4 37.62-135.7 3.08-3.85 6.08-7.38 8.87-10.52 5.4 2.89 12.05 7.19 19.52 12.6 11.34 8.2 24.58 18.98 38.24 31.35 21.42 19.4 38.86 38.17 47.97 50.97-3.8 3.52-7.18 7.29-9.79 11.09-6.15 8.95-8.09 18.16-1.43 25.21 17 18 82.11 15.92 108 15 28-1 53.12 4.48 74 16 29 16 35 38 32 44z" fill="#ffd6c0"/><path d="M303.721 355.456c-4.972 0-10.54-.98-16.207-2.962-6.177-2.164-12.489-3.44-19.868-4.017-7.786-.604-18.153-.616-28.204-.537-4.043.028-8.354.073-12.935.122-16.685.176-37.447.397-61.813-.092-30.772-.616-63.197-9.089-88.961-23.249-35.438-19.477-59.318-48.903-70.976-87.462-16.193-53.572 11.615-103.861 37.796-136.614a268.484 268.484 0 0 1 8.903-10.56 1.002 1.002 0 0 1 1.22-.218c5.435 2.909 12.041 7.172 19.635 12.672 11.782 8.52 25.035 19.384 38.324 31.419 20.655 18.707 38.641 37.821 48.113 51.131a.999.999 0 0 1-.135 1.313c-3.91 3.622-7.155 7.297-9.645 10.923-4.642 6.754-8.674 16.393-1.528 23.958 16.904 17.897 84.896 15.481 107.238 14.687 28.227-1.004 53.3 4.417 74.519 16.124 30.324 16.731 35.472 39.201 32.411 45.323l-.895-.447.895.447c-1.135 2.269-2.965 3.832-5.439 4.643-5.916 1.939-15.451-.352-29.098-6.998 8.756 14.651 8.003 27.388 4.132 34.691-2.125 4.009-5.189 6.576-8.37 7.084.856 6.113-.676 11.029-4.462 14.264-3.383 2.89-8.57 4.355-14.65 4.355zm-56.62-9.55c7.525 0 14.827.122 20.7.577 7.557.591 14.029 1.901 20.374 4.124 11.936 4.175 23.28 3.774 28.896-1.026 3.485-2.978 4.702-7.51 3.618-13.472a.995.995 0 0 1 .217-.819.997.997 0 0 1 .768-.359c2.789 0 5.763-2.342 7.762-6.113 3.868-7.296 4.328-20.507-5.979-35.706a1 1 0 0 1 1.284-1.452c14.686 7.526 25.05 10.384 30.806 8.5 1.976-.648 3.374-1.837 4.273-3.637 2.726-5.45-2.861-26.827-31.589-42.677-20.897-11.529-45.633-16.875-73.48-15.876-24.956.886-91.239 3.242-108.763-15.313-6.383-6.756-5.922-15.907 1.333-26.463 2.435-3.545 5.557-7.126 9.289-10.654-9.521-13.165-27.13-31.814-47.316-50.098-13.236-11.986-26.431-22.803-38.155-31.281-7.2-5.215-13.489-9.3-18.711-12.153a265.612 265.612 0 0 0-8.312 9.887C18.235 134.273-9.27 183.94 6.671 236.681c30.725 101.626 137.059 108.87 158.063 109.29 24.336.488 45.082.268 61.752.092 4.584-.048 8.897-.094 12.941-.122 2.552-.02 5.126-.034 7.674-.034z" fill="#112c41"/><path d="M605.714 210.97s-7 10-26.52 11.36c2.57-.4 5.08-.85 7.52-1.36-5.87-5.03-15.79-9.54-25.33-13.08-5.23-1.93-10.34-3.58-14.61-4.86 1.54-7.62 4.3-17.33 8.07-28.37 34.63 17.06 50.87 36.31 50.87 36.31zm-366.28 134.97c-18.93.13-43.76.65-74.72.03-50-1-133-24-159-110-16.41-54.29 13.4-105.4 37.62-135.7 3.08-3.85 6.08-7.38 8.87-10.52 5.4 2.89 12.05 7.19 19.52 12.6-57.01 51.62-60.656 115.47-42.01 156.62 29 64 114.52 87.36 195.76 85.68 5.97-.12 10.57.33 13.96 1.29z" fill="#f5b9ab"/><g fill="#112c41"><path d="M606.993 339.546c-13.284 0-26.715-1.227-39.822-2.424-17.558-1.604-34.143-3.119-46.859-1.094-17.789 2.825-29.877 3.504-35.166-1.832-2.548-2.572-3.457-6.459-2.766-11.859-5.355.483-9.82-1.887-12.384-6.645-4.099-7.609-2.878-20.985 6.781-33.065-5.529 1.834-10.457 1.922-14.151.208-2.833-1.314-4.799-3.664-5.684-6.793-1.586-5.597.31-12.584 5.337-19.674 9.772-13.782 32.604-29.267 67.373-31.396 3.147-.192 6.801-.351 10.669-.518 13.357-.578 29.828-1.291 44.098-4.042-5.07-3.812-12.921-7.703-23.383-11.585a247.483 247.483 0 0 0-14.549-4.839 1 1 0 0 1-.693-1.156c3.248-16.06 11.754-40.688 22.754-65.882 12.306-28.208 26.054-53.305 35.878-65.497a1.003 1.003 0 0 1 1.178-.29 423.524 423.524 0 0 1 11.638 5.283c41.936 19.828 139.473 74.089 139.473 149.524 0 39.571-17.039 69.585-50.644 89.208-27.673 16.159-61.103 21.855-84.273 23.789-4.896.408-9.841.58-14.804.58zm-72.324-6.492c9.959 0 21.111 1.019 32.684 2.076 17.919 1.637 36.449 3.33 54.278 1.843 49.702-4.147 133.083-24.083 133.083-111.003 0-74.292-96.736-128.051-138.327-147.716a425.572 425.572 0 0 0-10.879-4.951c-9.687 12.274-23.085 36.843-35.127 64.446-10.744 24.608-19.092 48.645-22.442 64.587a248.141 248.141 0 0 1 13.792 4.615c11.893 4.413 20.518 8.874 25.634 13.259a.999.999 0 0 1-.445 1.737c-14.892 3.135-32.424 3.894-46.512 4.503-3.859.167-7.505.325-10.634.516-34.064 2.085-56.358 17.152-65.863 30.556-4.671 6.586-6.462 12.969-5.045 17.973.732 2.589 2.28 4.447 4.602 5.524 3.937 1.826 9.89 1.196 16.332-1.732a1 1 0 0 1 1.141 1.598c-11.465 12.137-13.298 26.219-9.184 33.856 2.376 4.412 6.51 6.344 11.634 5.442a1.003 1.003 0 0 1 1.16 1.151c-.911 5.418-.252 9.164 2.016 11.453 4.67 4.712 16.742 3.915 33.431 1.264 4.481-.713 9.41-.998 14.672-.998zm-230.948 22.402c-4.972 0-10.54-.98-16.207-2.962-6.177-2.164-12.489-3.44-19.868-4.017-9.67-.753-23.488-.605-40.981-.419-16.723.179-37.532.4-61.97-.087-30.773-.616-63.198-9.089-88.962-23.249-35.438-19.477-59.318-48.903-70.976-87.462-16.193-53.572 11.615-103.861 37.796-136.614a268.484 268.484 0 0 1 8.903-10.56 1.001 1.001 0 0 1 1.221-.217c14.227 7.627 35.894 24.109 57.958 44.09 20.655 18.707 38.641 37.821 48.113 51.131a.999.999 0 0 1-.135 1.313c-3.91 3.622-7.155 7.297-9.645 10.923-4.642 6.754-8.674 16.393-1.528 23.958 16.904 17.897 84.896 15.481 107.238 14.687 28.227-1.004 53.3 4.417 74.519 16.124 30.324 16.731 35.472 39.201 32.411 45.323l-.895-.447.895.447c-1.135 2.269-2.965 3.832-5.439 4.643-5.916 1.939-15.451-.352-29.098-6.998 8.756 14.651 8.003 27.388 4.132 34.691-2.125 4.009-5.189 6.576-8.37 7.084.856 6.113-.676 11.029-4.462 14.264-3.383 2.89-8.57 4.355-14.65 4.355zm-56.901-9.549c8.314 0 15.334.136 20.982.576 7.556.591 14.028 1.901 20.373 4.124 11.936 4.175 23.28 3.774 28.896-1.026 3.485-2.978 4.702-7.51 3.618-13.472a.995.995 0 0 1 .217-.819.997.997 0 0 1 .768-.359c2.789 0 5.763-2.342 7.762-6.113 3.868-7.296 4.328-20.507-5.979-35.706a1 1 0 0 1 1.284-1.452c14.686 7.526 25.05 10.384 30.806 8.5 1.976-.648 3.374-1.837 4.273-3.637 2.726-5.45-2.861-26.827-31.589-42.677-20.897-11.529-45.633-16.875-73.48-15.876-24.956.886-91.239 3.242-108.763-15.313-6.383-6.756-5.922-15.907 1.333-26.463 2.435-3.545 5.557-7.126 9.289-10.654-9.521-13.165-27.13-31.814-47.316-50.098C87.7 115.888 66.525 99.721 52.427 92.008a267.385 267.385 0 0 0-8.311 9.887C18.235 134.273-9.27 183.94 6.671 236.681c30.725 101.626 137.059 108.87 158.063 109.29 24.408.488 45.202.266 61.909.088 7.39-.079 14.127-.151 20.177-.151z"/><path d="M321.244 346.649a1.001 1.001 0 0 1-.958-1.29c.027-.091 2.679-9.214-3.109-19.223-6.149-10.637-19.161-18.338-38.672-22.891a1 1 0 0 1-.746-1.201.996.996 0 0 1 1.201-.747c20.1 4.69 33.55 12.726 39.976 23.885 6.206 10.774 3.387 20.357 3.264 20.759a.999.999 0 0 1-.955.708zm9.542-40.775c-.425 0-.819-.273-.954-.7-.094-.297-9.756-29.782-41.661-33.141a1 1 0 1 1 .209-1.989c33.236 3.499 43.263 34.22 43.36 34.53a1 1 0 0 1-.954 1.299zM393.714 14.47c0 12.43-18.8 22.5-42 22.5s-42-10.07-42-22.5c0-5.06 3.11-9.72 8.35-13.47 12.49 0 25.37.31 38.65.97 11.12.54 21.8 1.18 32.06 1.9 3.15 3.16 4.94 6.77 4.94 10.6z"/><path d="M351.714 37.97c-23.71 0-43-10.542-43-23.5 0-5.239 3.032-10.178 8.769-14.283a.997.997 0 0 1 .582-.187c12.711 0 25.731.327 38.699.972 10.759.522 21.553 1.162 32.081 1.901.24.017.468.121.638.292 3.423 3.434 5.231 7.344 5.231 11.306 0 12.958-19.29 23.5-43 23.5zM318.388 2c-5.021 3.673-7.674 7.98-7.674 12.47 0 11.855 18.393 21.5 41 21.5s41-9.645 41-21.5c0-3.372-1.476-6.61-4.388-9.629a1498.686 1498.686 0 0 0-31.661-1.872A780.132 780.132 0 0 0 318.388 2zm262.985 220.976a1 1 0 0 1-.08-1.997c11.538-.94 21.624-5.652 24.526-11.457a1 1 0 1 1 1.789.895c-3.25 6.5-13.76 11.545-26.153 12.555a1.123 1.123 0 0 1-.082.003z"/></g></svg></g><g transform="translate(321.0 949.0) rotate(0.0 500.0 323.0) scale(1.0 1.0)"><svg width="1000" height="646" viewBox="0 0 1000 646"><path d="M68 25h866v86H68z" fill="#fccc86"/><path d="M934 112H68a1 1 0 0 1-1-1V25a1 1 0 0 1 1-1h866a1 1 0 0 1 1 1v86a1 1 0 0 1-1 1zm-865-2h864V26H69z" fill="#112c41"/><rect fill="#fcd7ac" height="622" rx="14" width="28" x="54" y="23"/><path d="M68 646c-8.271 0-15-6.729-15-15V37c0-8.271 6.729-15 15-15s15 6.729 15 15v594c0 8.271-6.729 15-15 15zm0-622c-7.168 0-13 5.832-13 13v594c0 7.168 5.832 13 13 13s13-5.832 13-13V37c0-7.168-5.832-13-13-13z" fill="#112c41"/><rect fill="#fcd7ac" height="622" rx="14" width="28" x="920" y="23"/><path d="M934 646c-8.271 0-15-6.729-15-15V37c0-8.271 6.729-15 15-15s15 6.729 15 15v594c0 8.271-6.729 15-15 15zm0-622c-7.168 0-13 5.832-13 13v594c0 7.168 5.832 13 13 13s13-5.832 13-13V37c0-7.168-5.832-13-13-13z" fill="#112c41"/><rect fill="#fcd7ac" height="43" rx="13.174" width="998" x="1" y="1"/><path d="M985.826 45H14.174C6.358 45 0 38.642 0 30.826V14.174C0 6.359 6.358 0 14.174 0h971.652C993.641 0 1000 6.358 1000 14.174v16.652C1000 38.641 993.642 45 985.826 45zM14.174 2C7.461 2 2 7.461 2 14.174v16.652C2 37.539 7.461 43 14.174 43h971.652C992.539 43 998 37.539 998 30.826V14.174C998 7.461 992.539 2 985.826 2z" fill="#112c41"/></svg></g><g transform="translate(1135.0 800.0) rotate(0.0 78.5 75.5) scale(0.9875704508856683 1.0)"><svg width="158.976" height="151" viewBox="0 0 158.976 151"><path d="M140.38 34.11c-5.96-1.43-12.09.07-17.38 3.71V7.02C123 3.7 120.3 1 116.98 1H7.02C3.7 1 1 3.7 1 7.02V98.7C1 127.03 23.97 150 52.3 150h19.4c16.93 0 31.95-8.2 41.29-20.86l.02-.02c6.28-8.51 9.99-19.03 9.99-30.42v-4.65c.89.36 1.82.67 2.77.9 13.14 3.15 27.07-7.91 31.1-24.71 4.04-16.8-3.34-32.98-16.49-36.13zm9.23 34.56c-2.79 11.59-12.4 19.22-21.46 17.05-1.91-.46-3.63-1.34-5.15-2.51V49.06c4.23-4.44 9.83-6.62 15.23-5.33 9.07 2.18 14.16 13.35 11.38 24.94z" fill="#fff" stroke="#112c41" stroke-linecap="round" stroke-linejoin="round" stroke-width="2"/><path d="M112.99 129.14C103.65 141.8 88.63 150 71.7 150H52.3C23.97 150 1 127.03 1 98.7V19c4 50 15 98 46 112 28.51 12.875 57.97 6.24 65.99-1.86z" fill="#dedffe"/><path d="M71.696 151H52.304C23.464 151 0 127.536 0 98.695V7.022C0 3.15 3.149 0 7.021 0h109.957A7.03 7.03 0 0 1 124 7.022v28.97c5.315-3.152 11.153-4.167 16.618-2.855 6.661 1.6 12.116 6.396 15.361 13.507 3.206 7.027 3.868 15.49 1.865 23.832-4.157 17.309-18.649 28.723-32.306 25.442a19.67 19.67 0 0 1-1.539-.439v3.217c0 28.841-23.463 52.305-52.304 52.305zM7.021 2A5.028 5.028 0 0 0 2 7.022v91.673C2 126.433 24.566 149 52.305 149h19.392c27.737 0 50.304-22.566 50.304-50.305v-4.649a1 1 0 0 1 1.376-.927c.887.36 1.771.647 2.63.854 12.588 3.021 25.993-7.729 29.894-23.965 1.9-7.909 1.282-15.912-1.74-22.535-2.983-6.539-7.958-10.94-14.008-12.393-5.452-1.309-11.34-.044-16.585 3.561a1 1 0 0 1-1.566-.824V7.022a5.027 5.027 0 0 0-5.021-5.021H7.021zm124.24 85.085c-1.116 0-2.235-.129-3.349-.396-1.97-.473-3.828-1.378-5.524-2.689a1 1 0 0 1-.389-.791V49.056c0-.257.099-.504.276-.69 4.613-4.836 10.667-6.933 16.188-5.605 9.59 2.303 15.025 14.03 12.117 26.141-2.572 10.705-10.817 18.183-19.319 18.183zm-7.262-4.378c1.363.981 2.835 1.666 4.38 2.037 8.521 2.048 17.604-5.271 20.256-16.309 2.651-11.039-2.121-21.684-10.639-23.73-4.785-1.146-9.867.583-13.997 4.757z" fill="#112c41"/><path d="M77.318 51.251c-6.07-3.565-13.57-1.033-16.83 5.675-3.26-6.708-10.76-9.24-16.83-5.675-6.11 3.576-8.44 11.983-5.21 18.757 2.79 5.864 17.91 13.604 21.64 15.759.16.089.29.167.4.233.11-.066.24-.144.4-.233 3.73-2.154 18.85-9.895 21.64-15.759 3.23-6.775.9-15.181-5.21-18.757z" fill="#ffa9dc"/></svg></g><g transform="translate(1077.0 708.0) rotate(0.0 -256.5 121.5) scale(-0.9990690935152042 0.9996791153456915)"><svg width="513.478" height="243.078" viewBox="0 0 513.478 243.078"><path d="M393.928 242.078H57.548a6.493 6.493 0 0 1-6.32-5l-3.07-13-46-194.72C-2.5 10.057 7.286 1.121 24.538 1.078c71.435-.176 285.74 0 285.74 0a36.931 36.931 0 0 1 35.91 28.42l2.66 11.25c.07.32.14.64.22.96l43.09 182.37 3.07 13 .61 2.59a1.959 1.959 0 0 1-1.91 2.41z" fill="#dedffe"/><path d="M393.928 243.078H57.548a7.464 7.464 0 0 1-7.294-5.77L1.184 29.588c-2.231-9.242-1.323-16.527 2.7-21.647S15.045.1 24.535.078c70.62-.175 283.6 0 285.744 0a37.932 37.932 0 0 1 36.882 29.191l2.661 11.249c.082.375.144.661.215.948l46.775 197.973a2.959 2.959 0 0 1-2.884 3.639zM130.179 2c-42.342 0-81.979.02-105.638.078C15.685 2.1 9.084 4.555 5.454 9.176S1.049 20.5 3.129 29.124L52.2 236.848a5.471 5.471 0 0 0 5.347 4.23h336.38a.959.959 0 0 0 .937-1.18l-3.681-15.59-43.089-182.369c-.073-.293-.14-.6-.207-.9l-2.673-11.307a35.932 35.932 0 0 0-34.936-27.65C308.852 2.077 214.2 2 130.179 2z" fill="#112c41"/><path d="M512.478 229.578v7a5.5 5.5 0 0 1-5.5 5.5H57.545a6.491 6.491 0 0 1-6.317-5l-3.07-13h458.82a5.5 5.5 0 0 1 5.5 5.5z" fill="#b2b0f7"/><path d="M506.978 243.078H57.545a7.464 7.464 0 0 1-7.291-5.77l-3.07-13a1 1 0 0 1 .974-1.23h458.82a6.508 6.508 0 0 1 6.5 6.5v7a6.508 6.508 0 0 1-6.5 6.5zm-457.557-18 2.78 11.77a5.47 5.47 0 0 0 5.344 4.23h449.433a4.5 4.5 0 0 0 4.5-4.5v-7a4.505 4.505 0 0 0-4.5-4.5z" fill="#112c41"/><path d="M395.228 237.078a4.066 4.066 0 0 1-3.957 5H57.548a6.493 6.493 0 0 1-6.32-5l-3.07-13h344z" fill="#cbc8ff"/><path d="M391.271 243.078H57.548a7.464 7.464 0 0 1-7.294-5.77l-3.07-13a1 1 0 0 1 .974-1.23h344a1 1 0 0 1 .973.77l3.07 13a5.067 5.067 0 0 1-4.93 6.229zm-341.85-18 2.78 11.77a5.471 5.471 0 0 0 5.347 4.23h333.723a3.065 3.065 0 0 0 2.983-3.77l-2.887-12.23z" fill="#112c41"/><circle cx="183.478" cy="118.078" fill="#fff" r="21.447"/></svg></g><g transform="translate(511.0 333.0) rotate(33.350290489189874 134.5 116.0) scale(1.0073057753445998 1.0065425264217414)"><svg width="267.049" height="230.492" viewBox="0 0 267.049 230.492"><circle cx="237.478" cy="84.689" fill="#ffd6c0" r="28.57"/><path d="M239.064 113.215a28.569 28.569 0 0 0 26.984-28.6 28.572 28.572 0 0 1-55.55-7.7q-.039-.765-.039-1.522a28.59 28.59 0 0 0 28.6 37.824z" fill="#f5b9ab"/><path d="M237.491 114.259a29.664 29.664 0 0 1-20.626-8.37 1 1 0 1 1 1.394-1.433 27.679 27.679 0 0 0 20.747 7.761 27.57 27.57 0 1 0-29.093-28.088 1.016 1.016 0 0 1-1.019.98 1 1 0 0 1-.981-1.019A29.571 29.571 0 0 1 267 83.051a29.57 29.57 0 0 1-27.887 31.162q-.813.045-1.622.046z" fill="#112c41"/><path d="M224.133 93.791a1 1 0 0 1-.927-.622 18.121 18.121 0 0 1 9.616-23.718 17.634 17.634 0 0 1 15.378 1.024 1 1 0 1 1-.98 1.744 15.659 15.659 0 0 0-13.642-.917 16.121 16.121 0 0 0-8.519 21.111 1 1 0 0 1-.925 1.378z" fill="#112c41"/><circle cx="139.02" cy="126.977" fill="#ffd6c0" r="102.5"/><path d="M85.849 39.346c.3-.179.6-.341.893-.517l12.185 7.207C53.322 73.888 37.991 130.909 65.3 175.917c27.359 45.089 87.153 61.047 132.952 33.258A98.411 98.411 0 0 0 210.98 200 102.511 102.511 0 1 1 85.849 39.346z" fill="#f5b9ab"/><g fill="#112c41"><path d="M139.19 230.453a103.539 103.539 0 0 1-88.656-49.786A103.5 103.5 0 1 1 227.505 73.288a103.464 103.464 0 0 1-88.315 157.165zM52.244 179.63a101.5 101.5 0 1 0-11.815-76.782 101.619 101.619 0 0 0 11.815 76.782z"/><ellipse cx="119.578" cy="114.282" rx="6.828" ry="9.104" transform="matrix(.88298037 -.46940992 .46940992 .88298037 -39.653 69.506)"/><ellipse cx="98.237" cy="84.337" rx="14.13" ry="9.336" transform="matrix(.77004578 -.63798863 .63798863 .77004578 -31.216 82.068)"/><ellipse cx="184.169" cy="56.381" rx="8.6" ry="13.016" transform="matrix(.05862688 -.99827997 .99827997 .05862688 117.086 236.927)"/><path d="M183.505 49.762c.348 0 .7.01 1.051.031 5.961.35 10.82 3.663 10.61 7.234-.193 3.294-4.829 5.973-10.334 5.973-.348 0-.7-.011-1.051-.031-5.961-.35-10.819-3.663-10.61-7.235.194-3.293 4.83-5.973 10.334-5.973m0-2c-6.653 0-12.067 3.374-12.331 7.856-.278 4.741 5.314 8.927 12.49 9.348q.589.035 1.168.035c6.653 0 12.068-3.375 12.331-7.857.278-4.741-5.314-8.926-12.49-9.348q-.589-.034-1.168-.034z"/><ellipse cx="184.703" cy="89.853" rx="6.828" ry="9.104" transform="matrix(.95494228 -.29679159 .29679159 .95494228 -18.346 58.868)"/><path d="M141.387 123.839c5.779 11.079 16.366 17.191 25.211 13.944s12.962-14.758 10.2-26.944z"/><path d="M161.66 139.651c-7.878 0-16.176-5.8-21.16-15.349a1 1 0 0 1 .542-1.4l35.411-13a1 1 0 0 1 1.32.718c2.925 12.906-1.629 24.726-10.831 28.1a15.248 15.248 0 0 1-5.282.931zm-18.843-15.272c5.736 10.175 15.449 15.4 23.436 12.465s12.014-13.2 9.8-24.668z"/></g><path d="M172.664 132.8c-4.282-2.943-10.72-2.981-16.217.355a17.715 17.715 0 0 0-3.694 2.974c4.5 2.555 9.392 3.293 13.845 1.658a14.687 14.687 0 0 0 6.438-4.719q-.183-.142-.372-.268z" fill="#ffa6e0"/><path d="M161.67 139.646a19.1 19.1 0 0 1-9.411-2.652 1 1 0 0 1-.233-1.556 18.713 18.713 0 0 1 3.9-3.141c5.647-3.429 12.6-3.557 17.3-.325q.207.142.406.291a1 1 0 0 1 .181 1.424 15.609 15.609 0 0 1-6.875 5.033 15.212 15.212 0 0 1-5.268.926zm-7.235-3.765a15.02 15.02 0 0 0 11.818.963 13.436 13.436 0 0 0 5.294-3.577c-4.05-2.423-9.816-2.153-14.582.739a16.928 16.928 0 0 0-2.53 1.875z" fill="#112c41"/><circle cx="31.504" cy="164.725" fill="#ffd6c0" r="30.5"/><path d="M61.661 169.937a33.288 33.288 0 0 1-4.42 6.2c-11.072 12.7-30.711 13.559-43.4 2.494-8.341-7.256-11.164-17.571-9.412-27.709-6.351 12.195-4.408 27.109 6.423 36.553a30.493 30.493 0 0 0 43.033-2.945c3.806-4.362 6.864-9.263 7.776-14.593z" fill="#f5b9ab"/><path d="M31.562 196.238a31.7 31.7 0 0 1-7.546-.916 31.5 31.5 0 0 1-8.852-57.522 31.614 31.614 0 0 1 41.959 8.6 1 1 0 1 1-1.628 1.162 29.609 29.609 0 0 0-39.295-8.057 29.5 29.5 0 1 0 30.605 50.441A31.465 31.465 0 0 0 60.68 169.74a1 1 0 1 1 1.961.395 33.52 33.52 0 0 1-14.8 21.52 31.312 31.312 0 0 1-16.279 4.583z" fill="#112c41"/><path d="M14.894 164.787a1 1 0 0 1-.98-1.2 18.756 18.756 0 0 1 9.908-13.061 19.278 19.278 0 0 1 25.753 8.834 1 1 0 1 1-1.785.9 17.275 17.275 0 0 0-23.065-7.951 16.765 16.765 0 0 0-8.852 11.68 1 1 0 0 1-.979.798z" fill="#112c41"/><path d="M30.5 124.339c15.441-22.283 39.375-43.273 69.326-58.78A213.343 213.343 0 0 1 138.318 50.1a64.028 64.028 0 0 0-14.207-23.569c.149.073.307.141.448.219a75.854 75.854 0 0 1 25.665 20.3c2.48-.558 4.944-1.047 7.4-1.494 18.033-3.245 35.258-3.521 50.535-.918a1.861 1.861 0 0 0 1.884-2.851 89.532 89.532 0 0 0-21.923-22.749C157.148-3.4 112.834-5.685 76.132 16.585a108.767 108.767 0 0 0-17.117 12.831C32.039 54.182 20.3 90.489 27.853 123.815a1.477 1.477 0 0 0 2.647.524z" fill="#fcaa51"/><path d="M30.5 124.339a155.947 155.947 0 0 1 13.334-16.618c-6.51-29.679 4.019-61.928 28.015-83.951A98.052 98.052 0 0 1 99.505 5.948a109.1 109.1 0 0 0-40.49 23.468C32.039 54.182 20.3 90.489 27.853 123.815a1.477 1.477 0 0 0 2.647.524z" fill="#ff9522"/><path d="M29.245 125.8a2.424 2.424 0 0 1-.479-.048 2.672 2.672 0 0 1-2.007-2.258C19.545 89.51 31.647 53.18 58.341 28.681A109.929 109.929 0 0 1 75.613 15.73 106.707 106.707 0 0 1 134.305.048a97.23 97.23 0 0 1 54.4 18.18 89.87 89.87 0 0 1 22.069 22.854 2.9 2.9 0 0 1 .193 3.25 3.1 3.1 0 0 1-3.152 1.264c-17.291-2.923-37.131-2.082-57.374 2.428a1.007 1.007 0 0 1-.987-.337 76.831 76.831 0 0 0-21.112-17.866 66.794 66.794 0 0 1 10.918 19.951 1 1 0 0 1-.666 1.287 212.549 212.549 0 0 0-38.307 15.386C71.879 81.151 47.5 101.756 31.63 124.464a2.97 2.97 0 0 1-2.385 1.336zm29.773-96.38.676.736c-26.176 24.021-38.046 59.627-30.979 92.92.042.2.169.657.449.714a.933.933 0 0 0 .826-.471c16.048-22.97 40.687-43.8 69.378-58.649a214.69 214.69 0 0 1 37.651-15.233 62.881 62.881 0 0 0-13.629-22.21 1 1 0 0 1 1.137-1.6A76.628 76.628 0 0 1 150.6 45.94c20.288-4.451 40.174-5.253 57.548-2.316a1.133 1.133 0 0 0 1.14-.378 1 1 0 0 0-.176-1.053 87.9 87.9 0 0 0-21.58-22.346 95.239 95.239 0 0 0-53.288-17.8 104.741 104.741 0 0 0-57.593 15.392 107.985 107.985 0 0 0-16.957 12.715zM198.6 115.551a22.539 22.539 0 0 1-4.937-.57 31.953 31.953 0 0 1-16.637-10.364 31.95 31.95 0 0 1-8.089-17.853c-.565-6.307 1.333-11.715 5.343-15.229s9.62-4.686 15.8-3.3a33.805 33.805 0 0 1 24.72 28.221c.565 6.307-1.333 11.716-5.343 15.229a16.152 16.152 0 0 1-10.857 3.866zm-13.449-45.922a14.242 14.242 0 0 0-9.584 3.379c-3.527 3.089-5.19 7.914-4.682 13.582a30 30 0 0 0 7.611 16.738 30 30 0 0 0 15.594 9.744c5.552 1.248 10.553.232 14.08-2.859 3.527-3.09 5.19-7.914 4.682-13.582a31.856 31.856 0 0 0-23.205-26.483 20.582 20.582 0 0 0-4.496-.519zm-68.7 78.582c-11.468 0-21.021-11.958-21.384-26.9a31.874 31.874 0 0 1 5.626-19.422c3.866-5.34 9.131-8.357 14.826-8.5 5.7-.16 11.1 2.617 15.221 7.764a31.876 31.876 0 0 1 6.564 19.125c.367 15.11-8.807 27.635-20.452 27.918a3.85 3.85 0 0 1-.401.015zm-.524-52.765h-.356c-5.039.123-9.732 2.839-13.214 7.647a29.818 29.818 0 0 0-5.236 18.168c.336 13.823 8.973 24.894 19.33 24.894h.353c10.513-.257 18.79-11.838 18.45-25.816a29.817 29.817 0 0 0-6.114-17.893c-3.625-4.524-8.305-7-13.215-7z" fill="#112c41"/><path d="M134.849 112.312a1 1 0 0 1-.822-1.567c7.29-10.57 23.564-19.278 39.367-14.593a1 1 0 0 1-.569 1.918c-14.357-4.256-30.165 3.681-37.152 13.81a1 1 0 0 1-.824.432zm-89.044 25.803a1 1 0 0 1-.728-1.686c10.54-11.19 32.406-18.714 50.861-17.5a1 1 0 0 1 .932 1.063 1.016 1.016 0 0 1-1.063.933c-20.417-1.354-40.625 7.694-49.274 16.878a1 1 0 0 1-.728.312zm162.324-55.631a1 1 0 0 1-.807-1.589c3.746-5.139 12.54-9.978 18.121-9.978h.036a1 1 0 0 1 0 2 .2.2 0 0 1-.035 0c-4.965 0-13.127 4.526-16.5 9.156a1 1 0 0 1-.815.411z" fill="#112c41"/></svg></g></svg>