<svg width="920" height="920" viewBox="0 0 920 920" fill="none" xmlns="http://www.w3.org/2000/svg">
<path d="M387.387 484.703C387.387 484.703 366.413 496.905 402.33 501.033C445.858 505.999 468.09 505.333 516.036 496.217C525.691 501.973 535.819 506.897 546.309 510.934C438.806 557.01 302.953 508.268 387.387 484.703ZM374.303 424.565C374.303 424.565 350.771 441.981 386.72 445.701C433.215 450.495 469.917 450.893 533.463 438.659C539.944 444.753 547.61 449.448 555.985 452.452C426.013 490.454 281.259 455.43 374.303 424.565Z" fill="#3A85C4"/>
<path d="M627.185 529.157C627.185 529.157 642.709 541.96 610.082 551.851C548.041 570.642 351.815 576.318 297.31 552.603C277.723 544.078 314.511 532.253 326.025 529.759C338.076 527.146 344.956 527.608 344.956 527.608C323.165 512.268 204.126 557.71 284.496 570.793C503.664 606.333 684.023 554.796 627.185 529.146V529.157ZM397.482 362.268C397.482 362.268 297.676 385.983 362.146 394.605C389.377 398.239 443.612 397.4 494.171 393.164C535.485 389.692 576.949 382.274 576.949 382.274C576.949 382.274 562.393 388.52 551.847 395.712C450.482 422.373 254.696 409.956 311.039 382.704C358.706 359.645 397.461 362.279 397.461 362.279L397.482 362.268ZM576.53 462.343C679.615 408.817 631.926 357.366 598.665 364.3C594.647 365.046 590.694 366.103 586.839 367.46C589.025 364.365 592.093 362.001 595.644 360.677C661.425 337.553 712.017 428.877 574.433 465.041C575.297 464.283 576.008 463.367 576.53 462.343Z" fill="#3A85C4"/>
<path d="M407.63 607.43C506.534 613.751 658.382 603.915 661.984 557.118C661.984 557.118 655.071 574.856 580.281 588.929C495.869 604.818 391.752 602.969 330.013 592.777C329.98 592.777 342.633 603.248 407.63 607.43Z" fill="#3A85C4"/>
<path d="M485.033 322.577C511.544 353.076 478.089 380.522 478.089 380.522C478.089 380.522 545.354 345.798 514.457 302.313C485.614 261.773 463.489 241.627 583.259 172.233C583.206 172.169 395.214 219.169 485.033 322.577Z" fill="#D84942"/>
<path d="M514.415 60C514.415 60 571.467 117.041 460.308 204.84C371.145 275.255 439.979 315.396 460.308 361.268C408.255 314.321 370.08 272.976 395.688 234.511C433.314 178.05 537.485 150.658 514.458 60H514.415Z" fill="#D84942"/>
<path d="M657.405 691.358H654.405V689.67H662.522V691.358H659.512V699.775H657.362L657.405 691.358ZM673.595 691.777L670.606 699.765H669.241L666.263 691.777V699.765H664.263V689.659H667.198L669.939 696.808L672.692 689.659H675.594V699.765H673.659V691.777H673.595ZM391.419 786.219C382.088 794.303 372.23 798.851 363.382 798.851C350.772 798.851 343.924 791.272 343.924 779.156C343.924 766.03 351.256 756.419 380.572 756.419H391.408V786.219H391.419ZM417.155 815.245V725.372C417.155 702.398 404.051 687.23 372.466 687.23C356.016 687.309 339.765 690.828 324.756 697.561L328.54 713.482C338.882 709.687 352.255 706.161 365.382 706.161C383.582 706.161 391.408 713.482 391.408 728.64V740.025H382.313C338.119 740.025 318.177 757.225 318.177 782.951C318.177 805.172 331.314 817.793 356.061 817.793C371.961 817.793 383.84 811.235 394.934 801.667L396.955 815.299L417.155 815.245ZM503.051 815.245H470.961L432.26 689.466H460.307L484.291 766.729L489.667 789.949C501.761 756.365 510.35 722.287 514.65 689.466H541.913C534.625 730.887 521.477 776.372 503.051 815.256V815.245ZM626.218 786.219C616.876 794.303 607.018 798.851 598.181 798.851C585.571 798.851 578.733 791.272 578.733 779.156C578.733 766.03 586.065 756.419 615.371 756.419H626.218V786.219ZM652.019 815.245V725.372C652.019 702.398 638.871 687.23 607.319 687.23C590.86 687.314 574.601 690.84 559.587 697.582L563.371 713.504C573.713 709.709 587.119 706.183 600.256 706.183C618.424 706.183 626.261 713.504 626.261 728.662V740.025H617.166C572.971 740.025 553.04 757.225 553.04 782.951C553.04 805.172 566.155 817.793 590.892 817.793C606.813 817.793 618.671 811.235 629.798 801.667L631.819 815.299L652.019 815.245ZM289.957 836.628C282.625 847.378 270.757 855.828 257.792 860.622L245.074 845.647C254.965 840.573 263.425 832.392 267.36 824.77C270.757 817.965 272.176 809.257 272.176 788.369V644.798H299.536V786.38C299.536 814.331 297.3 825.619 289.957 836.628Z" fill="#D84942"/>
</svg>