<svg enable-background="new 0 0 1606.999 576.652" height="577" viewBox="0 0 1606.999 576.652" width="1607" xmlns="http://www.w3.org/2000/svg"><path d="m611.168 350.763h-204.526c-2.762 0-5-2.239-5-5s2.238-5 5-5h204.526c2.762 0 5 2.239 5 5s-2.238 5-5 5z" fill="#232323"/><path d="m1198.027 254.152h-194.249c-2.762 0-5-2.239-5-5s2.238-5 5-5h194.249c2.762 0 5 2.239 5 5s-2.238 5-5 5z" fill="#232323"/><path d="m1197 3h406.999v338.652h-406.999z" fill="#fff"/><path d="m1603.999 344.652h-406.999c-1.657 0-3-1.343-3-3v-338.652c0-1.657 1.343-3 3-3h406.999c1.657 0 3 1.343 3 3v338.652c0 1.657-1.343 3-3 3zm-403.999-6h400.999v-332.652h-400.999z" fill="#232323"/><path d="m1399.64 212.452-49.454-67.943c-.787-1.082-.017-2.6 1.321-2.603l29.225-.063c1.794-.004 3.482.853 4.538 2.304l15.936 21.894c.875 1.203 2.648 1.262 3.602.122l34.529-41.274c1.241-1.483 3.078-2.338 5.012-2.332l29.911.097c1.668.005 2.573 1.952 1.503 3.232l-72.521 86.688c-.955 1.14-2.727 1.08-3.602-.122z" fill="#00676c"/><path d="m603 127h406.999v338.652h-406.999z" fill="#fff"/><path d="m1009.999 468.652h-406.999c-1.657 0-3-1.343-3-3v-338.652c0-1.657 1.343-3 3-3h406.999c1.657 0 3 1.343 3 3v338.652c0 1.657-1.343 3-3 3zm-403.999-6h400.999v-332.652h-400.999z" fill="#232323"/><path d="m799.64 340.452-49.454-67.943c-.787-1.082-.017-2.6 1.321-2.603l29.225-.063c1.794-.004 3.482.853 4.538 2.303l15.936 21.894c.875 1.203 2.648 1.262 3.602.122l34.529-41.274c1.241-1.483 3.078-2.338 5.012-2.332l29.911.097c1.668.005 2.574 1.952 1.503 3.232l-72.521 86.688c-.955 1.141-2.727 1.081-3.602-.121z" fill="#00676c"/><path d="m3 235h406.999v338.652h-406.999z" fill="#fff"/><path d="m409.999 576.652h-406.999c-1.657 0-3-1.343-3-3v-338.652c0-1.657 1.343-3 3-3h406.999c1.657 0 3 1.343 3 3v338.652c0 1.657-1.343 3-3 3zm-403.999-6h400.999v-332.652h-400.999z" fill="#232323"/><path d="m199.64 448.452-49.454-67.943c-.787-1.082-.017-2.6 1.321-2.603l29.225-.063c1.794-.004 3.482.853 4.538 2.303l15.936 21.894c.875 1.203 2.648 1.262 3.602.122l34.529-41.274c1.241-1.483 3.078-2.338 5.012-2.332l29.911.097c1.668.005 2.574 1.952 1.503 3.232l-72.522 86.688c-.954 1.141-2.726 1.081-3.601-.121z" fill="#00676c"/></svg>