<svg xmlns="http://www.w3.org/2000/svg" viewBox="0 0 1400 1400" width="1400" height="1400"><g transform="translate(761.0 172.0) rotate(0.0 128.0 124.5) scale(1.0014121475987623 1.0003012955709552)"><svg width="255.639" height="248.925" viewBox="0 0 255.639 248.925"><path d="m249.472 106.109-22.575-6.187c-2.74-.751-4.892-2.845-5.765-5.548a98.536 98.536 0 0 0-9.721-21.146c-1.483-2.423-1.671-5.42-.458-7.988l10.002-21.162a8.382 8.382 0 0 0-2.733-10.421L183.488 9.052a8.38 8.38 0 0 0-10.737.879l-16.645 16.456c-2.022 2-4.917 2.815-7.697 2.216a97.954 97.954 0 0 0-23.175-2.167c-2.839.074-5.528-1.262-7.146-3.597L104.773 3.61A8.382 8.382 0 0 0 94.382.766l-38.677 17.78a8.38 8.38 0 0 0-4.607 9.738l5.925 22.627c.72 2.747-.018 5.659-1.922 7.765a97.935 97.935 0 0 0-13.444 19c-1.355 2.5-3.859 4.166-6.694 4.399l-23.327 1.919a8.38 8.38 0 0 0-7.658 7.577L.037 133.956a8.382 8.382 0 0 0 6.13 8.859l22.575 6.187c2.74.751 4.892 2.845 5.766 5.548a98.613 98.613 0 0 0 9.72 21.146c1.483 2.423 1.672 5.419.458 7.988l-10.002 21.163a8.382 8.382 0 0 0 2.733 10.421l34.736 24.605a8.38 8.38 0 0 0 10.737-.879l16.645-16.456c2.022-2 4.917-2.816 7.697-2.216a98.006 98.006 0 0 0 23.175 2.167c2.839-.074 5.528 1.262 7.146 3.597l13.316 19.229a8.382 8.382 0 0 0 10.391 2.844l38.676-17.78a8.38 8.38 0 0 0 4.607-9.738l-5.925-22.627c-.719-2.748.018-5.659 1.922-7.766a97.892 97.892 0 0 0 13.444-19c1.355-2.501 3.859-4.166 6.694-4.399l23.328-1.919a8.38 8.38 0 0 0 7.658-7.577l3.94-42.385a8.384 8.384 0 0 0-6.132-8.859zM127.82 185.735c-33.84 0-61.273-27.433-61.273-61.273S93.98 63.189 127.82 63.189s61.273 27.433 61.273 61.273c-.001 33.841-27.434 61.273-61.273 61.273z" fill="#dda6ff"/></svg></g><g transform="translate(206.0 312.0) rotate(0.0 343.5 244.5) scale(1.0007574874723226 1.0011526563302944)"><svg width="686.48" height="488.437" viewBox="0 0 686.48 488.437"><path d="M20.878 0h644.723c11.531 0 20.878 9.348 20.878 20.878v446.68c0 11.531-9.348 20.878-20.878 20.878H20.878C9.348 488.437 0 479.089 0 467.558V20.878C0 9.348 9.348 0 20.878 0z" fill="#25242e"/><path d="M665.602 0H20.879C9.348 0 0 9.348 0 20.878v17.419h686.48V20.878C686.48 9.348 677.133 0 665.602 0z" fill="#b153e0"/><g fill="#fff"><path d="M42.68 32.159a1.99 1.99 0 0 1-1.414-.586L22.691 12.998a2 2 0 1 1 2.828-2.828l18.574 18.575a2 2 0 0 1-1.413 3.414z"/><path d="M24.105 32.159a2 2 0 0 1-1.414-3.414L41.266 10.17a2 2 0 1 1 2.828 2.828L25.519 31.573a1.99 1.99 0 0 1-1.414.586z"/></g></svg></g><g transform="translate(1298.0 1037.0) rotate(0.0 -596.0 92.5) scale(-1.0023401952713422 1.000443439794936)"><svg width="1189.217" height="184.918" viewBox="0 0 1189.217 184.918"><path d="M1187.217 142.918 2 2v40l190 140.918h995.217z" fill="#fff"/><path d="M1187.217 184.918H192c-.429 0-.847-.138-1.191-.394L.809 43.606A2 2 0 0 1 0 42V2A2.001 2.001 0 0 1 2.236.013l1185.217 140.918a2 2 0 0 1 1.764 1.986v40a2 2 0 0 1-2 2zm-994.556-4h992.556v-36.224L4 4.252v36.741z" fill="#25242e"/><path d="M997.217 2H2l190 140.918h995.217z" fill="#fff"/><g fill="#25242e"><path d="M1187.217 144.918H192c-.429 0-.847-.138-1.191-.394L.809 3.606A1.999 1.999 0 0 1 2 0h995.217c.429 0 .847.138 1.191.394l190 140.918a1.999 1.999 0 0 1-1.191 3.606zm-994.556-4h988.502L996.556 4H8.054z"/><path d="M192 169.428a2 2 0 0 1-2-2v-24.511a2 2 0 0 1 4 0v24.511a2 2 0 0 1-2 2z"/></g></svg></g><g transform="translate(251.0 393.0) rotate(0.0 288.0 179.0) scale(1.0000989681270542 1.0009338321227066)"><svg width="575.943" height="357.666" viewBox="0 0 575.943 357.666"><circle cx="4.333" cy="4.333" fill="#fff" r="4.333"/><path d="M319.099 7.333H198.078a3 3 0 1 1 0-6h121.021a3 3 0 1 1 0 6z" fill="#dda6ff"/><path d="M152.141 7.333H66.375a3 3 0 1 1 0-6h85.766a3 3 0 1 1 0 6z" fill="#b153e0"/><g fill="#fff"><path d="M572.944 57.19H469.992a3 3 0 1 1 0-6h102.951a3 3 0 0 1 .001 6zm-148.909 0H127.61a3 3 0 1 1 0-6h296.426a3 3 0 1 1-.001 6z"/><circle cx="4.333" cy="54.19" r="4.333"/><path d="M496.035 107.047H309.141a3 3 0 1 1 0-6h186.894a3 3 0 1 1 0 6z"/></g><path d="M268.546 107.047H127.61a3 3 0 1 1 0-6h140.936a3 3 0 1 1 0 6z" fill="#dda6ff"/><circle cx="4.333" cy="104.047" fill="#fff" r="4.333"/><path d="M439.354 156.904H214.929a3 3 0 1 1 0-6h224.426a3 3 0 1 1-.001 6z" fill="#fff"/><circle cx="4.333" cy="153.904" fill="#fff" r="4.333"/><path d="M362.758 206.762h-164.68a3 3 0 1 1 0-6h164.681a3 3 0 1 1-.001 6z" fill="#dda6ff"/><path d="M152.141 206.762H66.375a3 3 0 1 1 0-6h85.766a3 3 0 1 1 0 6z" fill="#b153e0"/><circle cx="4.333" cy="203.761" fill="#fff" r="4.333"/><path d="M415.369 256.619H309.141a3 3 0 1 1 0-6h106.228a3 3 0 1 1 0 6z" fill="#fff"/><path d="M268.546 256.619H126.078a3 3 0 1 1 0-6h142.468a3 3 0 1 1 0 6z" fill="#dda6ff"/><circle cx="4.333" cy="253.619" fill="#fff" r="4.333"/><path d="M399.524 306.476H214.929a3 3 0 1 1 0-6h184.596a3 3 0 1 1-.001 6z" fill="#fff"/><circle cx="4.333" cy="303.476" fill="#fff" r="4.333"/><path d="M181.992 356.333h-55.915a3 3 0 1 1 0-6h55.915a3 3 0 1 1 0 6zm284.192 0H226.078a3 3 0 1 1 0-6h240.106a3 3 0 1 1 0 6z" fill="#b153e0"/><circle cx="4.333" cy="353.333" fill="#fff" r="4.333"/></svg></g><g transform="translate(530.0 534.0) rotate(0.0 350.0 283.5) scale(1.0008636023082775 1.001061089444014)"><svg width="699.396" height="566.399" viewBox="0 0 699.396 566.399"><g fill="#dda6ff"><path d="M31.049 424.897c14.294-19.162 142.874-173.656 142.874-173.656 58.669-52.141 127.24 48.61 107.182 91.484-28.1 40.752-81.523 104.106-137.715 167.352-61.788 69.544-173.615-3.037-112.341-85.18z"/><path d="M84.336 539.974c-17.584 0-35.068-6.117-48.543-17.096-13.559-11.047-22.111-26.163-24.079-42.564-2.222-18.507 3.91-38.083 17.732-56.613 14.162-18.983 141.654-172.194 142.94-173.739a2.03 2.03 0 0 1 .209-.216c11.666-10.366 24.352-15.448 37.696-15.115 11.623.294 23.695 4.872 34.912 13.24 31.431 23.446 49.758 69.956 37.713 95.702a2.004 2.004 0 0 1-.165.288c-31.488 45.664-92.352 116.316-137.867 167.544-10.782 12.137-29.302 26.923-56.3 28.45a76.219 76.219 0 0 1-4.248.119zM31.049 424.897l1.603 1.196c-30.502 40.89-16.01 76.022 5.668 93.684 35.333 28.788 79.735 15.802 103.575-11.028 45.393-51.092 106.067-121.518 137.468-167.02 10.985-23.826-7.072-68.661-36.551-90.652-13.32-9.936-39.781-22.93-67.448 1.56-4.16 4.999-128.778 154.778-142.711 173.457z"/><path d="M173.922 251.241c13.855-13.63 57.519-38.426 116.701-47.627 37.103-5.768 141.272-11.476 179.31-6.721 52.554 6.57 94.261 25.699 142.076 80.868l-120.383 66.395-195.75 4.044z"/><path d="M295.876 350.201c-.452 0-.891-.153-1.245-.435l-121.953-96.96a1.997 1.997 0 0 1-.158-2.991c13.94-13.713 58.246-38.919 117.797-48.178 18.523-2.88 53.663-5.756 89.524-7.328 40.25-1.765 73.178-1.547 90.341.6 28.597 3.574 51.96 10.704 73.523 22.437 23.672 12.88 46.509 32.214 69.816 59.105a1.998 1.998 0 0 1-.545 3.06l-120.383 66.396a2.008 2.008 0 0 1-.925.249l-195.75 4.045h-.042zm-118.897-99.085 119.576 95.07 194.536-4.02 117.78-64.96c-49.778-56.737-91.7-72.393-139.187-78.329-37.27-4.66-141.616.938-178.754 6.713-56.422 8.772-98.742 31.888-113.951 45.526z"/><path d="m531.652 340.897 18.971 123.789s-272.468 46.696-298.883 46.696c0 0-13.328-165.45-15.1-174.05-16.145-78.393 186.35-44.262 186.35-44.262z"/><path d="M251.74 513.382a2.001 2.001 0 0 1-1.994-1.84c-.133-1.653-13.339-165.424-15.065-173.807-2.62-12.719.153-23.42 8.24-31.805 15.669-16.247 50.865-23.67 104.614-22.043 39.735 1.197 75.431 7.15 75.787 7.21.163.028.322.075.473.143l108.661 47.826a1.998 1.998 0 0 1 1.171 1.527l18.971 123.79a2 2 0 0 1-1.639 2.274c-11.13 1.909-272.936 46.725-299.219 46.725zm81.883-225.661c-35.656 0-71.998 4.579-87.822 20.987-7.216 7.481-9.571 16.713-7.201 28.221 1.693 8.221 13.425 153.111 14.982 172.398 33.176-1.69 270.74-42.176 294.767-46.28l-18.507-120.762-107.425-47.282c-3.623-.591-45.706-7.282-88.794-7.282z"/></g><path d="M244.201 421.818a2 2 0 0 1-1.987-1.795c-2.196-21.316-3.911-42.013-5.164-57.124-1.101-13.282-1.897-22.88-2.367-25.163a2 2 0 0 1 1.555-2.362 1.995 1.995 0 0 1 2.362 1.556c.519 2.52 1.281 11.717 2.436 25.64 1.252 15.094 2.966 35.768 5.157 57.044a2 2 0 0 1-1.992 2.204z" fill="#25242e"/><path d="M300.164 450.448c17.772-10.568 67.404-22.857 138.619-27.361 50.535 7.083 55.66 96.863 27.691 122.29-29.636 0-81.765 3.596-110.971-16.318-12.326-8.405-64.608-73.099-55.339-78.611z" fill="#fff"/><path d="M438.633 547.634c-28.718 0-62.358-1.99-84.256-16.923-12.153-8.286-57.731-64.258-57.304-78.067.07-2.261 1.164-3.377 2.069-3.915 24.458-14.545 87.694-24.361 139.515-27.638a2.1 2.1 0 0 1 .404.016c19.467 2.729 34.271 17.464 41.685 41.493 9.634 31.222 3.835 69.02-12.926 84.257a2 2 0 0 1-1.345.521c-3.665 0-7.694.056-11.96.114-5.034.069-10.368.142-15.882.142zm-137.452-95.465c.002 0-.219.342-.046 1.511.913 6.139 10.057 20.854 24.462 39.362 12.484 16.039 25.824 30.812 31.032 34.364 25.058 17.087 67.118 16.512 97.829 16.085a976.96 976.96 0 0 1 11.226-.113c15.03-14.419 20.193-50.578 11.239-79.6-4.003-12.973-14.285-35.214-38.219-38.683-71.14 4.517-120.324 16.846-137.518 27.07z" fill="#25242e"/><path d="M324.885 486.274c14.331-12.901 10.892-45.609 0-44.054-31.851 4.548-58.428 32.662-65.409 43.911-24.407 39.332-13.672 65.385 1.002 66.189 20.118 1.102 25.521-25.585 35.835-40.65 10.14-14.81 28.572-25.396 28.572-25.396z" fill="#fff"/><path d="M261.674 554.353c-.429 0-.863-.012-1.305-.036-5.716-.313-10.787-3.933-13.912-9.931-2.729-5.237-9.976-24.99 11.32-59.311 4.971-8.01 24.464-35.029 66.587-46.396a2 2 0 1 1 1.042 3.861c-41.758 11.268-60.831 39.165-64.231 44.644-10.515 16.944-18.971 40.384-11.172 55.353 2.456 4.714 6.314 7.552 10.584 7.785 13.315.743 19.574-11.979 26.198-25.433 2.451-4.979 4.986-10.128 7.877-14.351 10.279-15.014 28.457-25.559 29.226-26a2 2 0 0 1 1.993 3.468c-.18.104-18.164 10.544-27.918 24.791-2.729 3.986-5.09 8.781-7.589 13.857-6.402 13.007-13.637 27.698-28.7 27.699z" fill="#25242e"/><path d="M306.534 465.533c-4.01 3.654-9.17 9.977-18.875 26.82-12.6 21.867-22.861 66.539 3.647 68.698 19.237 1.567 17.316-26.281 22.707-43.481 3.991-12.734 16.66-26.426 23.936-34.66 7.278-8.234-12.446-31.979-31.415-17.377z" fill="#fff"/><path d="M292.87 563.116c-.559 0-1.132-.023-1.726-.072-6.985-.568-12.092-3.84-15.18-9.722-8.372-15.949.995-46.406 9.962-61.968 10.423-18.089 15.585-23.951 19.261-27.3a2 2 0 0 1 2.694 2.957c-3.448 3.142-8.341 8.728-18.489 26.34-8.861 15.378-17.226 44.128-9.886 58.111 2.443 4.653 6.356 7.138 11.963 7.595 11.578.935 14.394-10.097 17.367-27.047.903-5.146 1.836-10.467 3.269-15.039 3.859-12.312 15.294-25.19 22.861-33.711l1.485-1.675a2 2 0 1 1 2.997 2.648l-1.491 1.683c-7.34 8.266-18.432 20.757-22.035 32.251-1.355 4.324-2.266 9.515-3.146 14.534-2.506 14.289-5.337 30.413-19.906 30.415z" fill="#25242e"/><path d="M370.312 490.25c2.842-13.303-15.064-35.717-35.927-20.417-6.3 4.62-13.001 14.2-20.683 27.426-17.432 30.012-19.31 63.524.528 66.819 21.4 3.554 23.146-23.224 28.507-41.402 5.155-17.477 27.575-32.426 27.575-32.426z" fill="#fff"/><path d="M318.07 566.412a25.28 25.28 0 0 1-4.168-.361c-5.923-.983-10.462-4.495-13.127-10.155-6.278-13.334-1.778-37.302 11.197-59.641 8.723-15.018 15.271-23.664 21.229-28.033a2 2 0 1 1 2.366 3.225c-5.493 4.029-11.703 12.3-20.136 26.818-12.152 20.921-16.69 43.919-11.037 55.927 2.11 4.481 5.529 7.145 10.163 7.914 15.836 2.623 19.626-13.132 23.64-29.82.861-3.578 1.674-6.959 2.622-10.174 5.299-17.967 27.443-32.897 28.383-33.524a2 2 0 0 1 2.22 3.328c-.218.146-21.88 14.761-26.766 31.327-.92 3.118-1.721 6.45-2.569 9.979-3.76 15.629-7.985 33.189-24.017 33.19z" fill="#25242e"/><path d="M403.554 533.803c2.892-3.993-30.18-66.175-40.408-57.065-.88.784-16.393 13.414-26.041 38.543-14.794 38.531 3.057 47.496 10.209 48.574 15.331 2.313 20.585-14.034 26.984-35.382 6.737 7.096 20.333 9.394 29.256 5.33z" fill="#fff"/><path d="M350.121 566.075a20.79 20.79 0 0 1-3.106-.242c-2.134-.321-9.455-1.984-14.048-9.871-5.448-9.356-4.684-23.284 2.27-41.397 8.768-22.837 22.45-35.774 26.435-39.196l.143-.123a1.999 1.999 0 1 1 2.661 2.986l-.198.172c-3.805 3.267-16.874 15.633-25.307 37.595-6.407 16.688-7.288 29.811-2.548 37.951 2.938 5.045 7.705 7.403 11.188 7.929 13.283 2.004 18.065-11.607 24.77-33.979a2 2 0 0 1 3.832 1.148c-5.697 19.006-11.1 37.024-26.092 37.027z" fill="#25242e"/><path d="m440.734 423.087 84.449-7.616c-11.491-8.214-5.108-15.793 4.879-15.793l-77.071-106.607c-24.078-74.706 127.862-50.945 159.018-15.31 11.933 15.942 23.4 30.707 64.242 105.376 42.068 76.91 20.74 152.469-58.381 157.176-92.58 5.508-151.396 5.064-151.396 5.064 6.432-42.928 5.895-100.504-25.74-122.29z" fill="#dda6ff"/><path d="M469.426 547.384c-1.888 0-2.893-.006-2.968-.007a2.001 2.001 0 0 1-1.963-2.296c2.635-17.59 5.019-43.75 1.405-68.489-3.637-24.896-12.486-42.345-26.3-51.857a2 2 0 0 1 .955-3.639l79.761-7.193c-3.747-4.034-3.531-7.445-2.927-9.33 1.071-3.338 4.449-5.735 8.994-6.57l-75.013-103.76a2.003 2.003 0 0 1-.283-.559c-7.901-24.514 3.264-36.919 14.021-43.009 36.345-20.576 124.585-1.477 148.406 25.769.033.038.065.077.095.118l.935 1.248c11.611 15.499 23.618 31.525 63.46 104.366 24.022 43.919 28.04 88.796 10.747 120.046-13.431 24.27-37.9 38.132-70.764 40.087-80.043 4.764-135.468 5.075-148.561 5.075zm-.64-4c11.733-.01 67.603-.227 148.965-5.067 31.426-1.87 54.768-15.021 67.501-38.031 16.626-30.045 12.605-73.479-10.756-116.189-39.706-72.591-51.625-88.501-63.152-103.888l-.89-1.188c-10.579-12.044-36.792-23.566-66.82-29.368-32.025-6.187-60.643-4.504-76.554 4.503-13.687 7.748-17.818 20.533-12.281 38.002l76.884 106.348a2 2 0 0 1-1.621 3.172c-4.442 0-8.087 1.692-8.864 4.116-.724 2.259 1.152 5.193 5.149 8.051a2 2 0 0 1-.983 3.619l-79.36 7.157c12.402 10.613 20.419 27.87 23.855 51.394 3.53 24.166 1.46 49.577-1.073 67.369z" fill="#dda6ff"/><path d="M414.976 426.946a2 2 0 0 1-.15-3.995c27.948-2.128 88.241-7.505 105.488-9.051-3.746-4.033-3.53-7.444-2.925-9.329 1.071-3.34 4.451-5.737 9-6.571l-44.644-61.953a2 2 0 1 1 3.245-2.338l46.695 64.799a1.999 1.999 0 0 1-1.622 3.169c-4.442 0-8.087 1.692-8.864 4.116-.724 2.259 1.152 5.193 5.149 8.051a2 2 0 0 1-.983 3.619c-.772.069-77.563 6.989-110.233 9.477a2.073 2.073 0 0 1-.156.006z" fill="#25242e"/><path d="M546.803 404.697c-.118 0-.237-.01-.357-.032l-16.739-3.02a1.999 1.999 0 0 1-1.613-2.323 1.995 1.995 0 0 1 2.323-1.612l16.739 3.02a1.999 1.999 0 0 1-.353 3.967zm-2.685 24.893c-.369 0-.742-.102-1.076-.315l-18.937-12.119a2 2 0 1 1 2.157-3.369l18.937 12.119a2 2 0 0 1-1.081 3.684z" fill="#25242e"/><path d="m265.642 87.034-23.117 9.308c-4.723-29.721 4.963-51.511 36.541-61.252z" fill="#b153e0"/><path d="M242.526 98.341a1.997 1.997 0 0 1-1.976-1.687c-5.205-32.751 7.556-54.107 37.927-63.477a2.001 2.001 0 0 1 2.526 2.411l-13.424 51.944a2 2 0 0 1-1.189 1.355l-23.117 9.308a1.983 1.983 0 0 1-.747.146zm33.686-60.198c-25.306 9.018-35.82 27.186-32.075 55.394l19.822-7.981zm-10.57 48.891h.01z" fill="#b153e0"/><path d="M271.875 113.292c-15.244-42.371-5.583-79.999 41.204-92.973 48.41-13.424 79.218 13.647 91.314 56.226 6.768-17.603 27.848-10.925 32.116 4.492 3.158 11.407-5.751 26.573-26.256 25.046-2.185 41.689-36.917 68.187-73.411 73.455-44.679 6.45-81.54-27.284-64.967-66.246z" fill="#fff"/><path d="M325.773 182.34c-20.615 0-39.304-8.24-50.459-22.732-10.362-13.462-12.333-29.902-5.583-46.373-8.72-24.663-8.722-46.595.005-63.46 7.821-15.116 22.224-25.676 42.809-31.384 23.638-6.554 44.14-4.07 60.936 7.388 13.998 9.548 24.791 25.212 31.395 45.488 3.312-4.896 8.252-7.472 14.085-7.184 8.769.425 16.96 7.33 19.476 16.42 1.756 6.343.175 13.332-4.23 18.696-4.972 6.054-12.757 9.204-22.086 8.979-1.49 19.218-9.883 36.388-24.35 49.759-13.453 12.434-31.438 20.809-50.643 23.581a79.538 79.538 0 0 1-11.355.822zm11.209-163.506c-7.362 0-15.16 1.137-23.368 3.413-19.469 5.398-33.036 15.278-40.325 29.366-8.288 16.02-8.126 37.113.468 61.002.171.475.156.995-.042 1.46-6.519 15.324-4.825 30.629 4.769 43.094 12.294 15.973 34.546 23.784 58.073 20.391 18.412-2.658 35.636-10.67 48.499-22.56 14.184-13.109 22.206-30.061 23.2-49.021.028-.537.272-1.041.676-1.396s.933-.539 1.47-.493c8.88.659 16.238-1.977 20.714-7.429 3.58-4.358 4.875-10 3.466-15.091-2.069-7.473-8.72-13.147-15.815-13.491-5.686-.272-10.124 2.986-12.507 9.185a2 2 0 0 1-3.791-.171c-6.155-21.665-16.958-38.266-31.243-48.009-10.009-6.829-21.47-10.25-34.244-10.25z" fill="#25242e"/><path d="M365.704 46.503s6.968 15.359 14.852 29.625c11.052 19.998 26.285 12.359 23.837.418-5.091-19.688-15.026-34.781-28.508-46.51z" fill="#b153e0"/><path d="M395.853 90.468c-5.179 0-11.577-3.476-17.047-13.373-7.832-14.171-14.853-29.612-14.923-29.767a2.002 2.002 0 0 1 .12-1.878l10.182-16.467a2.002 2.002 0 0 1 3.014-.457c14.624 12.722 24.153 28.265 29.131 47.518.009.033.016.066.023.1 1.255 6.12-1.508 11.738-6.717 13.661a10.904 10.904 0 0 1-3.783.663zm-27.884-43.826c1.654 3.584 7.705 16.517 14.338 28.518 5.684 10.285 12.14 12.294 15.944 10.893 3.299-1.218 5.019-4.938 4.193-9.058-4.57-17.636-13.12-32.014-26.11-43.881z" fill="#b153e0"/><path d="M426.275 90.244c-.301 0-.606-.067-.893-.211l-13.863-6.932a2 2 0 0 1 1.789-3.579l13.863 6.932a2 2 0 0 1-.896 3.79z" fill="#25242e"/><path d="M416.268 93.018a1.999 1.999 0 0 1-1.776-2.916l7.007-13.593a1.999 1.999 0 1 1 3.555 1.832l-7.007 13.593a1.997 1.997 0 0 1-1.779 1.084zm-73.585-.882c-.684 0-1.35-.351-1.724-.982-4.161-7.04-12.414-11.951-21.474-7.058a2 2 0 1 1-1.901-3.52c11.338-6.127 21.85.134 26.819 8.542a2 2 0 0 1-1.72 3.018z" fill="#25242e"/><path d="M322.493 92.005c2.197 7.329 6.572 12.493 9.771 11.534s4.012-7.678 1.815-15.007c-1.047-3.492-2.588-6.493-4.261-8.574-.281-.35-8.222.8-8.329 1.401-.5 2.803-.199 6.633 1.004 10.646zm-23.848 11.497c-.684 0-1.35-.351-1.724-.982-4.161-7.04-12.414-11.956-21.474-7.058a2 2 0 0 1-1.901-3.52c11.338-6.127 21.85.133 26.819 8.542a2 2 0 0 1-1.72 3.018z" fill="#25242e"/><path d="M278.455 103.371c2.197 7.329 6.572 12.493 9.771 11.534s4.012-7.678 1.815-15.007c-1.047-3.492-2.588-6.493-4.261-8.574-.281-.35-8.222.8-8.329 1.401-.499 2.803-.199 6.633 1.004 10.646z" fill="#25242e"/><path d="M284.911 29.726c41.257-45.222 98.093-30.827 135.286 12.276l-78.294 19.736c-7.692-4.518-16.07-8.923-20.584-10.812l11.656 13.799-10.769 2.805c-9.752-4.706-18.91-11.132-27.763-18.443 1.482 8.927 5.518 16.466 12.447 22.433l-22.852 5.954c-11.811-6.714-16.356-17.791-13.634-33.23-22.767 10.527-28.502 33.081-24.07 50.563l-6.579 2.649c-14.355-27.631-6.093-70.42 45.156-67.73z" fill="#b153e0"/><path d="M239.756 99.458a2 2 0 0 1-1.776-1.078c-8.866-17.068-8.734-37.201.339-51.291 6.125-9.512 19.028-20.551 45.753-19.404C301.175 9.263 322.054-.285 344.52.007c27.067.375 55.201 15.205 77.19 40.688a2 2 0 0 1-1.025 3.246l-78.294 19.736a2.012 2.012 0 0 1-1.502-.215 282.278 282.278 0 0 0-11.978-6.646l5.59 6.618a2.002 2.002 0 0 1-1.023 3.227l-10.769 2.806a2.007 2.007 0 0 1-1.374-.135c-7.557-3.646-15.312-8.584-23.583-15.023 1.984 6.162 5.482 11.425 10.442 15.696a2 2 0 0 1-.801 3.451l-22.852 5.954a2 2 0 0 1-1.493-.197c-11.551-6.565-16.64-17.133-15.16-31.442-18.971 10.633-23.641 30.675-19.617 46.546a2 2 0 0 1-1.192 2.347l-6.579 2.649a1.982 1.982 0 0 1-.744.145zm40.634-67.853c-17.917 0-31.244 6.056-38.708 17.649-7.899 12.268-8.229 30.403-.96 45.658l3.275-1.319c-3.875-18.094 2.449-40.475 25.568-51.163a2 2 0 0 1 2.809 2.163c-2.528 14.339 1.384 24.403 11.959 30.738l18.558-4.835c-5.546-5.73-9.046-12.805-10.42-21.081a2.001 2.001 0 0 1 3.247-1.87c9.518 7.86 18.26 13.71 26.7 17.863l6.981-1.818-9.607-11.373c-.596-.706-.631-1.729-.085-2.474s1.532-1.021 2.385-.662c4.467 1.869 12.475 6.059 20.117 10.517l74.318-18.733c-20.898-23.12-47.005-36.512-72.059-36.858-21.572-.326-41.65 9.061-58.077 27.066a1.986 1.986 0 0 1-1.582.649 86.441 86.441 0 0 0-4.419-.117z" fill="#b153e0"/><path d="M365.936 58.139a2.001 2.001 0 0 1-.503-3.936l32.621-8.498a2 2 0 0 1 1.008 3.871l-32.621 8.498a2.006 2.006 0 0 1-.505.065zM246.332 96.808a2 2 0 0 1-1.937-1.509c-4.658-18.37 1.318-41.842 25.169-52.869a2 2 0 0 1 1.679 3.631c-21.768 10.064-27.222 31.488-22.97 48.256a2 2 0 0 1-1.941 2.491z" fill="#25242e"/><path d="M326.391 129.97c-1.344-11.429-25.757-8.263-23.416 3.025-1.363 5.043 3.352 11.892 12.05 11.377 8.384-.495 15.441-8.836 11.366-14.402z" fill="#dda6ff"/><path d="M309.858 135.972c-2.587 0-5.107-.325-7.481-1.069a2 2 0 0 1-1.31-2.507 1.999 1.999 0 0 1 2.507-1.31c9.995 3.132 25.186-2.698 35.072-9.441a2 2 0 0 1 2.254 3.304c-6.712 4.578-19.522 11.023-31.042 11.023z" fill="#25242e"/><path d="M204.787 361.929c34.662-54.564 74.433-117.048 83.238-130.368 25.558-38.666-10.768-52.154-28.292-21.865-10.43 18.028-24.613 26.133-32.449 19.341s-.545-47.982 11.424-29.096c13.315 21.01 29.918 28.524 41.788 18.383 7.969-6.807 11.817-31.031-15.178-49.407-25.049-17.051-56.003-3.78-86.504 26.206-27.88 27.409-58.178 61.121-80.627 90.553-26.67 34.967 80.021 118.094 106.6 76.253z" fill="#fff"/><path d="M181.908 375.434c-1.032 0-2.085-.038-3.161-.114-28.954-2.057-70.034-32.113-82.934-60.682-5.408-11.978-5.137-22.411.784-30.175 21.605-28.326 51.817-62.258 80.815-90.767 34.223-33.646 65.01-42.785 89.031-26.434 11.929 8.12 17.466 16.969 19.97 24.138 4.822.903 8.699 3.863 10.75 8.255 2.218 4.75 4.198 15.355-7.47 33.008-8.947 13.536-50.193 78.35-83.218 130.338-5.19 8.171-13.644 12.432-24.567 12.433zm59.295-212.045c-21.844 0-44.201 16.657-60.987 33.159-28.871 28.384-58.942 62.156-80.439 90.341-6.285 8.24-3.643 18.743-.319 26.103 12.175 26.962 52.333 56.403 79.572 58.338 11.056.784 19.155-2.738 24.068-10.473 33.034-52.003 74.294-116.839 83.257-130.398 7.737-11.706 10.356-22.316 7.183-29.11-1.22-2.612-3.257-4.49-5.874-5.469.396 1.881.588 3.564.666 4.988.425 7.772-2.14 15.222-6.536 18.977-4.643 3.967-10.187 5.595-16.034 4.717-9.851-1.483-20.058-9.848-28.743-23.551-1.704-2.688-3.368-4.132-4.565-3.969-1.202.168-3.152 2.208-4.691 7.405-2.609 8.812-2.19 20.46.831 23.078.835.724.925 1.987.201 2.821a1.998 1.998 0 0 1-2.821.202c-5.25-4.551-4.562-18.742-2.047-27.237 1.842-6.223 4.6-9.761 7.974-10.23 2.943-.418 5.802 1.537 8.496 5.789 7.937 12.524 17.399 20.446 25.96 21.736 4.733.707 9.052-.566 12.84-3.803 2.853-2.438 5.549-8.242 5.14-15.718-.357-6.518-3.448-19.15-20.144-30.516-7.409-5.044-15.166-7.18-22.988-7.18z" fill="#25242e"/><path d="M148.047 451.34c7.029-11.081 30.698-48.412 56.74-89.411-48.132-.351-107.873-46.342-106.6-76.253-25.532 29.098-49.747 59.447-58.997 71.811-76.562 102.333-21.717 180.985 45.925 180.481 0 0 46.453-60.649 62.932-86.628z" fill="#dda6ff"/><path d="M84.467 539.97c-32.06 0-60.712-17.35-74.889-45.4-19.331-38.248-9.122-88.65 28.01-138.281 8.997-12.025 32.997-42.188 59.096-71.932a2.002 2.002 0 0 1 3.502 1.404c-.391 9.195 5.557 20.739 16.749 32.503 18.928 19.896 54.498 41.421 87.868 41.665a2 2 0 0 1 1.674 3.072 136405.988 136405.988 0 0 0-52.823 83.235l-3.917 6.175c-16.337 25.755-62.568 86.166-63.033 86.772-.375.49-.956.779-1.573.784-.222.003-.443.003-.664.003zm12.021-249.311c-24.766 28.439-47.105 56.542-55.697 68.026-36.187 48.368-46.263 97.239-27.643 134.081 13.44 26.592 40.576 43.079 70.977 43.204 5.488-7.187 47-61.687 62.233-85.701l3.916-6.175c9.545-15.051 29.293-46.188 50.938-80.268-33.473-1.669-68.353-23.02-87.176-42.805-10.05-10.562-16.131-21.144-17.548-30.362zm51.559 160.681h.01z" fill="#dda6ff"/><path d="M131.265 477.828a2 2 0 0 1-1.687-3.072c2.467-3.89 10.4-16.148 20.442-31.668 18.348-28.354 46.074-71.202 62.989-97.83a2.001 2.001 0 0 1 3.377 2.145c-16.924 26.643-44.656 69.499-63.007 97.858-10.037 15.512-17.965 27.764-20.423 31.638a1.998 1.998 0 0 1-1.691.929z" fill="#25242e"/><path d="M199.75 194.373c54.521-24.764 66.138 24.214 34.959 53.292-26.101 24.343-41.853-4.829-28.832-19.906z" fill="#fff"/><path d="M216.034 259.041a16.035 16.035 0 0 1-11.116-4.402c-6.566-6.32-8.356-19.154-.554-28.188a2 2 0 1 1 3.027 2.615c-6.319 7.316-4.946 17.64.301 22.69 6.07 5.844 15.659 3.766 25.653-5.555 15.295-14.265 20.827-35.104 12.593-47.443-3.567-5.347-15.128-16.298-45.361-2.563a2.001 2.001 0 0 1-1.654-3.642c33.026-15 46.208-2.209 50.342 3.986 9.447 14.156 3.776 36.765-13.192 52.589-8.169 7.618-14.898 9.912-20.039 9.913z" fill="#25242e"/><path d="M181.209 211.407c57.798-15.655 61.372 34.554 25.916 58.228-29.683 19.819-40.845-10.696-24.694-25.112z" fill="#fff"/><path d="M189.62 278.171c-7.38 0-11.44-4.138-12.911-6.038-6.357-8.213-4.388-21.269 4.389-29.103a2 2 0 1 1 2.664 2.984c-6.344 5.662-9.42 16.524-3.89 23.669 5.03 6.498 14.802 5.858 26.141-1.712 17.394-11.614 26.211-31.291 20.072-44.796-2.659-5.851-12.305-18.522-44.355-9.839a2 2 0 1 1-1.045-3.861c35.011-9.48 45.96 5.265 49.042 12.045 7.043 15.494-2.197 36.894-21.493 49.777-7.714 5.153-13.855 6.874-18.614 6.874z" fill="#25242e"/><path d="M167.812 228.042c59.851 1.894 48.617 50.961 7.794 63.257-34.174 10.294-33.831-23.169-17.076-31.703z" fill="#fff"/><path d="M163.882 295.145c-6.698 0-13.963-2.07-17.158-10.026-3.863-9.62 1.23-22.38 10.9-27.305a2 2 0 1 1 1.816 3.564c-7.794 3.97-12.085 14.575-9.003 22.25 2.997 7.464 11.961 9.562 24.594 5.756 20.026-6.032 34.202-22.279 32.271-36.988-1.767-13.467-16.183-21.615-39.552-22.354a2 2 0 0 1-1.936-2.062c.035-1.104.957-1.996 2.062-1.936 36.255 1.147 42.423 18.447 43.392 25.833 2.214 16.874-12.868 34.646-35.084 41.338-2.379.716-7.175 1.93-12.302 1.93z" fill="#25242e"/><path d="M428.272 197.621c-.249 26.844-20.787 66.6-74.969 64.766-43.816-1.483-47.659-42.209-31.142-61.702 7.962-7.698 17.019-7.423 20.279-.623-14.066 11.198-21.658 43.668 13.272 45.721 40.028 2.353 52.133-33.426 52.457-49.1.105-7.745 20.226-8.113 20.103.938z" fill="#dda6ff"/><path d="M356.804 264.446c-1.18 0-2.37-.021-3.569-.061-18.921-.641-32.721-8.622-38.858-22.477-6.017-13.583-3.444-31.066 6.258-42.518.043-.051.088-.099.136-.145 4.946-4.782 10.631-7.009 15.597-6.121 3.503.629 6.3 2.784 7.876 6.07a2 2 0 0 1-.558 2.43c-7.459 5.938-13.324 18.992-10.166 28.96 2.511 7.926 10.226 12.49 22.31 13.201 13.746.808 25.218-2.94 34.092-11.136 10.859-10.03 16.034-25.697 16.248-36.01.033-2.425 1.439-4.545 3.961-5.955 4.498-2.517 11.712-2.445 16.082.157 2.655 1.581 4.096 3.996 4.06 6.8-.163 17.458-7.944 35.24-20.817 47.569-13.175 12.622-31.322 19.236-52.652 19.236zm-33.181-62.393c-8.695 10.325-10.995 26.032-5.588 38.235 5.482 12.376 18.032 19.514 35.336 20.099 21.773.741 40.211-5.51 53.318-18.063 12.111-11.6 19.432-28.318 19.583-44.722v-.009c.019-1.374-.67-2.458-2.107-3.313-3.109-1.853-8.868-1.901-12.082-.103-1.257.703-1.901 1.555-1.914 2.532-.177 8.599-4.07 26.444-17.533 38.88-9.704 8.963-22.166 13.063-37.041 12.189-17.538-1.03-23.758-9.262-25.888-15.985-3.574-11.28 2.332-25.011 10.155-32.158-1.029-1.38-2.458-2.26-4.2-2.573-3.611-.645-8.105 1.218-12.039 4.991z" fill="#25242e"/></svg></g><g transform="translate(295.0 900.0) rotate(0.0 299.0 121.0) scale(0.9999782613421446 0.9980081077848756)"><svg width="598.013" height="242.483" viewBox="0 0 598.013 242.483"><path d="M587.261 134.036H255.994l-169.28 94.172h26.974l-22.065 12.275H422.89l169.28-94.172c5.274-2.959 6.389-12.275-4.909-12.275z" fill="#fff"/><g fill="#25242e"><path d="M422.89 242.483H91.622a2 2 0 0 1-.972-3.748l15.328-8.527H86.713a2 2 0 0 1-.973-3.748l169.281-94.172c.297-.166.632-.252.972-.252H587.26c8.049 0 10.033 4.267 10.512 6.101.952 3.641-1.037 7.904-4.625 9.918L423.86 242.231a1.992 1.992 0 0 1-.972.252zm-323.559-4h323.04l168.827-93.92c1.979-1.11 3.196-3.541 2.706-5.414-.517-1.978-2.938-3.113-6.642-3.113H256.513l-162.09 90.172h19.264a2 2 0 0 1 .972 3.748z"/><path d="M417.983 230.208a2 2 0 0 1-.974-3.748l169.28-94.172a2 2 0 1 1 1.944 3.495l-169.28 94.172a1.996 1.996 0 0 1-.971.252zM244.381 167.72h232.615c2.141 0 2.869 2.856.989 3.881l-77.853 42.45a14.997 14.997 0 0 1-7.177 1.829H160.341c-2.141 0-2.869-2.856-.989-3.881l77.853-42.45a14.997 14.997 0 0 1 7.177-1.829zm144.116-3.774h-56.479c-1.901 0-3.499-1.236-3.976-3.076s.318-3.697 1.979-4.621l23.665-13.165a25.944 25.944 0 0 1 12.581-3.264h56.479c1.901 0 3.499 1.236 3.976 3.076s-.318 3.697-1.979 4.621l-23.666 13.166a25.946 25.946 0 0 1-12.581 3.264zm-22.23-20.126c-3.713 0-7.391.954-10.636 2.76l-23.666 13.165c-.07.074-.045.171-.014.195l56.546.007c3.713 0 7.391-.954 10.636-2.759l23.666-13.165c.07-.074.045-.171.014-.195l-56.546-.007z"/></g><path d="M91.369 240.483H422.89L333.807 25.965A38.874 38.874 0 0 0 297.905 2H21.468C7.6 2-1.812 16.099 3.507 28.907z" fill="#fff"/><path d="M422.89 242.483H91.369a2 2 0 0 1-1.847-1.233L1.66 29.674A21.411 21.411 0 0 1 3.629 9.54 21.407 21.407 0 0 1 21.468 0h276.437c16.575 0 31.392 9.891 37.749 25.198l89.083 214.518a2 2 0 0 1-1.847 2.767zm-330.186-4h327.19L331.96 26.732A36.771 36.771 0 0 0 297.905 4H21.468C15.625 4 10.2 6.901 6.956 11.761S3.113 22.744 5.354 28.14z" fill="#25242e"/><path d="M417.982 230.208a2.002 2.002 0 0 1-1.847-1.231l-45.906-110.091a2 2 0 0 1 3.692-1.54l45.906 110.091a2 2 0 0 1-1.845 2.771z" fill="#25242e"/></svg></g><g transform="translate(963.0 328.0) rotate(-25.900852438432075 92.5 90.0) scale(0.723676747288168 0.7231093702922566)"><svg width="255.639" height="248.925" viewBox="0 0 255.639 248.925"><path d="m249.472 106.109-22.575-6.187c-2.74-.751-4.892-2.845-5.765-5.548a98.536 98.536 0 0 0-9.721-21.146c-1.483-2.423-1.671-5.42-.458-7.988l10.002-21.162a8.382 8.382 0 0 0-2.733-10.421L183.488 9.052a8.38 8.38 0 0 0-10.737.879l-16.645 16.456c-2.022 2-4.917 2.815-7.697 2.216a97.954 97.954 0 0 0-23.175-2.167c-2.839.074-5.528-1.262-7.146-3.597L104.773 3.61A8.382 8.382 0 0 0 94.382.766l-38.677 17.78a8.38 8.38 0 0 0-4.607 9.738l5.925 22.627c.72 2.747-.018 5.659-1.922 7.765a97.935 97.935 0 0 0-13.444 19c-1.355 2.5-3.859 4.166-6.694 4.399l-23.327 1.919a8.38 8.38 0 0 0-7.658 7.577L.037 133.956a8.382 8.382 0 0 0 6.13 8.859l22.575 6.187c2.74.751 4.892 2.845 5.766 5.548a98.613 98.613 0 0 0 9.72 21.146c1.483 2.423 1.672 5.419.458 7.988l-10.002 21.163a8.382 8.382 0 0 0 2.733 10.421l34.736 24.605a8.38 8.38 0 0 0 10.737-.879l16.645-16.456c2.022-2 4.917-2.816 7.697-2.216a98.006 98.006 0 0 0 23.175 2.167c2.839-.074 5.528 1.262 7.146 3.597l13.316 19.229a8.382 8.382 0 0 0 10.391 2.844l38.676-17.78a8.38 8.38 0 0 0 4.607-9.738l-5.925-22.627c-.719-2.748.018-5.659 1.922-7.766a97.892 97.892 0 0 0 13.444-19c1.355-2.501 3.859-4.166 6.694-4.399l23.328-1.919a8.38 8.38 0 0 0 7.658-7.577l3.94-42.385a8.384 8.384 0 0 0-6.132-8.859zM127.82 185.735c-33.84 0-61.273-27.433-61.273-61.273S93.98 63.189 127.82 63.189s61.273 27.433 61.273 61.273c-.001 33.841-27.434 61.273-61.273 61.273z" fill="#dda6ff"/></svg></g><g transform="translate(530.0 534.0) rotate(0.0 350.0 283.5) translate(219.0 464.0) scale(1.0008636023082775 1.001061089444014)"><svg width="203.824" height="101.892" viewBox="218.811 463.508 203.824 101.892"><g fill="#dda6ff"><path d="M31.049 424.897c14.294-19.162 142.874-173.656 142.874-173.656 58.669-52.141 127.24 48.61 107.182 91.484-28.1 40.752-81.523 104.106-137.715 167.352-61.788 69.544-173.615-3.037-112.341-85.18z"/><path d="M84.336 539.974c-17.584 0-35.068-6.117-48.543-17.096-13.559-11.047-22.111-26.163-24.079-42.564-2.222-18.507 3.91-38.083 17.732-56.613 14.162-18.983 141.654-172.194 142.94-173.739a2.03 2.03 0 0 1 .209-.216c11.666-10.366 24.352-15.448 37.696-15.115 11.623.294 23.695 4.872 34.912 13.24 31.431 23.446 49.758 69.956 37.713 95.702a2.004 2.004 0 0 1-.165.288c-31.488 45.664-92.352 116.316-137.867 167.544-10.782 12.137-29.302 26.923-56.3 28.45a76.219 76.219 0 0 1-4.248.119zM31.049 424.897l1.603 1.196c-30.502 40.89-16.01 76.022 5.668 93.684 35.333 28.788 79.735 15.802 103.575-11.028 45.393-51.092 106.067-121.518 137.468-167.02 10.985-23.826-7.072-68.661-36.551-90.652-13.32-9.936-39.781-22.93-67.448 1.56-4.16 4.999-128.778 154.778-142.711 173.457z"/><path d="M173.922 251.241c13.855-13.63 57.519-38.426 116.701-47.627 37.103-5.768 141.272-11.476 179.31-6.721 52.554 6.57 94.261 25.699 142.076 80.868l-120.383 66.395-195.75 4.044z"/><path d="M295.876 350.201c-.452 0-.891-.153-1.245-.435l-121.953-96.96a1.997 1.997 0 0 1-.158-2.991c13.94-13.713 58.246-38.919 117.797-48.178 18.523-2.88 53.663-5.756 89.524-7.328 40.25-1.765 73.178-1.547 90.341.6 28.597 3.574 51.96 10.704 73.523 22.437 23.672 12.88 46.509 32.214 69.816 59.105a1.998 1.998 0 0 1-.545 3.06l-120.383 66.396a2.008 2.008 0 0 1-.925.249l-195.75 4.045h-.042zm-118.897-99.085 119.576 95.07 194.536-4.02 117.78-64.96c-49.778-56.737-91.7-72.393-139.187-78.329-37.27-4.66-141.616.938-178.754 6.713-56.422 8.772-98.742 31.888-113.951 45.526z"/><path d="m531.652 340.897 18.971 123.789s-272.468 46.696-298.883 46.696c0 0-13.328-165.45-15.1-174.05-16.145-78.393 186.35-44.262 186.35-44.262z"/><path d="M251.74 513.382a2.001 2.001 0 0 1-1.994-1.84c-.133-1.653-13.339-165.424-15.065-173.807-2.62-12.719.153-23.42 8.24-31.805 15.669-16.247 50.865-23.67 104.614-22.043 39.735 1.197 75.431 7.15 75.787 7.21.163.028.322.075.473.143l108.661 47.826a1.998 1.998 0 0 1 1.171 1.527l18.971 123.79a2 2 0 0 1-1.639 2.274c-11.13 1.909-272.936 46.725-299.219 46.725zm81.883-225.661c-35.656 0-71.998 4.579-87.822 20.987-7.216 7.481-9.571 16.713-7.201 28.221 1.693 8.221 13.425 153.111 14.982 172.398 33.176-1.69 270.74-42.176 294.767-46.28l-18.507-120.762-107.425-47.282c-3.623-.591-45.706-7.282-88.794-7.282z"/></g><path d="M244.201 421.818a2 2 0 0 1-1.987-1.795c-2.196-21.316-3.911-42.013-5.164-57.124-1.101-13.282-1.897-22.88-2.367-25.163a2 2 0 0 1 1.555-2.362 1.995 1.995 0 0 1 2.362 1.556c.519 2.52 1.281 11.717 2.436 25.64 1.252 15.094 2.966 35.768 5.157 57.044a2 2 0 0 1-1.992 2.204z" fill="#25242e"/><path d="M300.164 450.448c17.772-10.568 67.404-22.857 138.619-27.361 50.535 7.083 55.66 96.863 27.691 122.29-29.636 0-81.765 3.596-110.971-16.318-12.326-8.405-64.608-73.099-55.339-78.611z" fill="#fff"/><path d="M438.633 547.634c-28.718 0-62.358-1.99-84.256-16.923-12.153-8.286-57.731-64.258-57.304-78.067.07-2.261 1.164-3.377 2.069-3.915 24.458-14.545 87.694-24.361 139.515-27.638a2.1 2.1 0 0 1 .404.016c19.467 2.729 34.271 17.464 41.685 41.493 9.634 31.222 3.835 69.02-12.926 84.257a2 2 0 0 1-1.345.521c-3.665 0-7.694.056-11.96.114-5.034.069-10.368.142-15.882.142zm-137.452-95.465c.002 0-.219.342-.046 1.511.913 6.139 10.057 20.854 24.462 39.362 12.484 16.039 25.824 30.812 31.032 34.364 25.058 17.087 67.118 16.512 97.829 16.085a976.96 976.96 0 0 1 11.226-.113c15.03-14.419 20.193-50.578 11.239-79.6-4.003-12.973-14.285-35.214-38.219-38.683-71.14 4.517-120.324 16.846-137.518 27.07z" fill="#25242e"/><path d="M324.885 486.274c14.331-12.901 10.892-45.609 0-44.054-31.851 4.548-58.428 32.662-65.409 43.911-24.407 39.332-13.672 65.385 1.002 66.189 20.118 1.102 25.521-25.585 35.835-40.65 10.14-14.81 28.572-25.396 28.572-25.396z" fill="#fff"/><path d="M261.674 554.353c-.429 0-.863-.012-1.305-.036-5.716-.313-10.787-3.933-13.912-9.931-2.729-5.237-9.976-24.99 11.32-59.311 4.971-8.01 24.464-35.029 66.587-46.396a2 2 0 1 1 1.042 3.861c-41.758 11.268-60.831 39.165-64.231 44.644-10.515 16.944-18.971 40.384-11.172 55.353 2.456 4.714 6.314 7.552 10.584 7.785 13.315.743 19.574-11.979 26.198-25.433 2.451-4.979 4.986-10.128 7.877-14.351 10.279-15.014 28.457-25.559 29.226-26a2 2 0 0 1 1.993 3.468c-.18.104-18.164 10.544-27.918 24.791-2.729 3.986-5.09 8.781-7.589 13.857-6.402 13.007-13.637 27.698-28.7 27.699z" fill="#25242e"/><path d="M306.534 465.533c-4.01 3.654-9.17 9.977-18.875 26.82-12.6 21.867-22.861 66.539 3.647 68.698 19.237 1.567 17.316-26.281 22.707-43.481 3.991-12.734 16.66-26.426 23.936-34.66 7.278-8.234-12.446-31.979-31.415-17.377z" fill="#fff"/><path d="M292.87 563.116c-.559 0-1.132-.023-1.726-.072-6.985-.568-12.092-3.84-15.18-9.722-8.372-15.949.995-46.406 9.962-61.968 10.423-18.089 15.585-23.951 19.261-27.3a2 2 0 0 1 2.694 2.957c-3.448 3.142-8.341 8.728-18.489 26.34-8.861 15.378-17.226 44.128-9.886 58.111 2.443 4.653 6.356 7.138 11.963 7.595 11.578.935 14.394-10.097 17.367-27.047.903-5.146 1.836-10.467 3.269-15.039 3.859-12.312 15.294-25.19 22.861-33.711l1.485-1.675a2 2 0 1 1 2.997 2.648l-1.491 1.683c-7.34 8.266-18.432 20.757-22.035 32.251-1.355 4.324-2.266 9.515-3.146 14.534-2.506 14.289-5.337 30.413-19.906 30.415z" fill="#25242e"/><path d="M370.312 490.25c2.842-13.303-15.064-35.717-35.927-20.417-6.3 4.62-13.001 14.2-20.683 27.426-17.432 30.012-19.31 63.524.528 66.819 21.4 3.554 23.146-23.224 28.507-41.402 5.155-17.477 27.575-32.426 27.575-32.426z" fill="#fff"/><path d="M318.07 566.412a25.28 25.28 0 0 1-4.168-.361c-5.923-.983-10.462-4.495-13.127-10.155-6.278-13.334-1.778-37.302 11.197-59.641 8.723-15.018 15.271-23.664 21.229-28.033a2 2 0 1 1 2.366 3.225c-5.493 4.029-11.703 12.3-20.136 26.818-12.152 20.921-16.69 43.919-11.037 55.927 2.11 4.481 5.529 7.145 10.163 7.914 15.836 2.623 19.626-13.132 23.64-29.82.861-3.578 1.674-6.959 2.622-10.174 5.299-17.967 27.443-32.897 28.383-33.524a2 2 0 0 1 2.22 3.328c-.218.146-21.88 14.761-26.766 31.327-.92 3.118-1.721 6.45-2.569 9.979-3.76 15.629-7.985 33.189-24.017 33.19z" fill="#25242e"/><path d="M403.554 533.803c2.892-3.993-30.18-66.175-40.408-57.065-.88.784-16.393 13.414-26.041 38.543-14.794 38.531 3.057 47.496 10.209 48.574 15.331 2.313 20.585-14.034 26.984-35.382 6.737 7.096 20.333 9.394 29.256 5.33z" fill="#fff"/><path d="M350.121 566.075a20.79 20.79 0 0 1-3.106-.242c-2.134-.321-9.455-1.984-14.048-9.871-5.448-9.356-4.684-23.284 2.27-41.397 8.768-22.837 22.45-35.774 26.435-39.196l.143-.123a1.999 1.999 0 1 1 2.661 2.986l-.198.172c-3.805 3.267-16.874 15.633-25.307 37.595-6.407 16.688-7.288 29.811-2.548 37.951 2.938 5.045 7.705 7.403 11.188 7.929 13.283 2.004 18.065-11.607 24.77-33.979a2 2 0 0 1 3.832 1.148c-5.697 19.006-11.1 37.024-26.092 37.027z" fill="#25242e"/><path d="m440.734 423.087 84.449-7.616c-11.491-8.214-5.108-15.793 4.879-15.793l-77.071-106.607c-24.078-74.706 127.862-50.945 159.018-15.31 11.933 15.942 23.4 30.707 64.242 105.376 42.068 76.91 20.74 152.469-58.381 157.176-92.58 5.508-151.396 5.064-151.396 5.064 6.432-42.928 5.895-100.504-25.74-122.29z" fill="#dda6ff"/><path d="M469.426 547.384c-1.888 0-2.893-.006-2.968-.007a2.001 2.001 0 0 1-1.963-2.296c2.635-17.59 5.019-43.75 1.405-68.489-3.637-24.896-12.486-42.345-26.3-51.857a2 2 0 0 1 .955-3.639l79.761-7.193c-3.747-4.034-3.531-7.445-2.927-9.33 1.071-3.338 4.449-5.735 8.994-6.57l-75.013-103.76a2.003 2.003 0 0 1-.283-.559c-7.901-24.514 3.264-36.919 14.021-43.009 36.345-20.576 124.585-1.477 148.406 25.769.033.038.065.077.095.118l.935 1.248c11.611 15.499 23.618 31.525 63.46 104.366 24.022 43.919 28.04 88.796 10.747 120.046-13.431 24.27-37.9 38.132-70.764 40.087-80.043 4.764-135.468 5.075-148.561 5.075zm-.64-4c11.733-.01 67.603-.227 148.965-5.067 31.426-1.87 54.768-15.021 67.501-38.031 16.626-30.045 12.605-73.479-10.756-116.189-39.706-72.591-51.625-88.501-63.152-103.888l-.89-1.188c-10.579-12.044-36.792-23.566-66.82-29.368-32.025-6.187-60.643-4.504-76.554 4.503-13.687 7.748-17.818 20.533-12.281 38.002l76.884 106.348a2 2 0 0 1-1.621 3.172c-4.442 0-8.087 1.692-8.864 4.116-.724 2.259 1.152 5.193 5.149 8.051a2 2 0 0 1-.983 3.619l-79.36 7.157c12.402 10.613 20.419 27.87 23.855 51.394 3.53 24.166 1.46 49.577-1.073 67.369z" fill="#dda6ff"/><path d="M414.976 426.946a2 2 0 0 1-.15-3.995c27.948-2.128 88.241-7.505 105.488-9.051-3.746-4.033-3.53-7.444-2.925-9.329 1.071-3.34 4.451-5.737 9-6.571l-44.644-61.953a2 2 0 1 1 3.245-2.338l46.695 64.799a1.999 1.999 0 0 1-1.622 3.169c-4.442 0-8.087 1.692-8.864 4.116-.724 2.259 1.152 5.193 5.149 8.051a2 2 0 0 1-.983 3.619c-.772.069-77.563 6.989-110.233 9.477a2.073 2.073 0 0 1-.156.006z" fill="#25242e"/><path d="M546.803 404.697c-.118 0-.237-.01-.357-.032l-16.739-3.02a1.999 1.999 0 0 1-1.613-2.323 1.995 1.995 0 0 1 2.323-1.612l16.739 3.02a1.999 1.999 0 0 1-.353 3.967zm-2.685 24.893c-.369 0-.742-.102-1.076-.315l-18.937-12.119a2 2 0 1 1 2.157-3.369l18.937 12.119a2 2 0 0 1-1.081 3.684z" fill="#25242e"/><path d="m265.642 87.034-23.117 9.308c-4.723-29.721 4.963-51.511 36.541-61.252z" fill="#b153e0"/><path d="M242.526 98.341a1.997 1.997 0 0 1-1.976-1.687c-5.205-32.751 7.556-54.107 37.927-63.477a2.001 2.001 0 0 1 2.526 2.411l-13.424 51.944a2 2 0 0 1-1.189 1.355l-23.117 9.308a1.983 1.983 0 0 1-.747.146zm33.686-60.198c-25.306 9.018-35.82 27.186-32.075 55.394l19.822-7.981zm-10.57 48.891h.01z" fill="#b153e0"/><path d="M271.875 113.292c-15.244-42.371-5.583-79.999 41.204-92.973 48.41-13.424 79.218 13.647 91.314 56.226 6.768-17.603 27.848-10.925 32.116 4.492 3.158 11.407-5.751 26.573-26.256 25.046-2.185 41.689-36.917 68.187-73.411 73.455-44.679 6.45-81.54-27.284-64.967-66.246z" fill="#fff"/><path d="M325.773 182.34c-20.615 0-39.304-8.24-50.459-22.732-10.362-13.462-12.333-29.902-5.583-46.373-8.72-24.663-8.722-46.595.005-63.46 7.821-15.116 22.224-25.676 42.809-31.384 23.638-6.554 44.14-4.07 60.936 7.388 13.998 9.548 24.791 25.212 31.395 45.488 3.312-4.896 8.252-7.472 14.085-7.184 8.769.425 16.96 7.33 19.476 16.42 1.756 6.343.175 13.332-4.23 18.696-4.972 6.054-12.757 9.204-22.086 8.979-1.49 19.218-9.883 36.388-24.35 49.759-13.453 12.434-31.438 20.809-50.643 23.581a79.538 79.538 0 0 1-11.355.822zm11.209-163.506c-7.362 0-15.16 1.137-23.368 3.413-19.469 5.398-33.036 15.278-40.325 29.366-8.288 16.02-8.126 37.113.468 61.002.171.475.156.995-.042 1.46-6.519 15.324-4.825 30.629 4.769 43.094 12.294 15.973 34.546 23.784 58.073 20.391 18.412-2.658 35.636-10.67 48.499-22.56 14.184-13.109 22.206-30.061 23.2-49.021.028-.537.272-1.041.676-1.396s.933-.539 1.47-.493c8.88.659 16.238-1.977 20.714-7.429 3.58-4.358 4.875-10 3.466-15.091-2.069-7.473-8.72-13.147-15.815-13.491-5.686-.272-10.124 2.986-12.507 9.185a2 2 0 0 1-3.791-.171c-6.155-21.665-16.958-38.266-31.243-48.009-10.009-6.829-21.47-10.25-34.244-10.25z" fill="#25242e"/><path d="M365.704 46.503s6.968 15.359 14.852 29.625c11.052 19.998 26.285 12.359 23.837.418-5.091-19.688-15.026-34.781-28.508-46.51z" fill="#b153e0"/><path d="M395.853 90.468c-5.179 0-11.577-3.476-17.047-13.373-7.832-14.171-14.853-29.612-14.923-29.767a2.002 2.002 0 0 1 .12-1.878l10.182-16.467a2.002 2.002 0 0 1 3.014-.457c14.624 12.722 24.153 28.265 29.131 47.518.009.033.016.066.023.1 1.255 6.12-1.508 11.738-6.717 13.661a10.904 10.904 0 0 1-3.783.663zm-27.884-43.826c1.654 3.584 7.705 16.517 14.338 28.518 5.684 10.285 12.14 12.294 15.944 10.893 3.299-1.218 5.019-4.938 4.193-9.058-4.57-17.636-13.12-32.014-26.11-43.881z" fill="#b153e0"/><path d="M426.275 90.244c-.301 0-.606-.067-.893-.211l-13.863-6.932a2 2 0 0 1 1.789-3.579l13.863 6.932a2 2 0 0 1-.896 3.79z" fill="#25242e"/><path d="M416.268 93.018a1.999 1.999 0 0 1-1.776-2.916l7.007-13.593a1.999 1.999 0 1 1 3.555 1.832l-7.007 13.593a1.997 1.997 0 0 1-1.779 1.084zm-73.585-.882c-.684 0-1.35-.351-1.724-.982-4.161-7.04-12.414-11.951-21.474-7.058a2 2 0 1 1-1.901-3.52c11.338-6.127 21.85.134 26.819 8.542a2 2 0 0 1-1.72 3.018z" fill="#25242e"/><path d="M322.493 92.005c2.197 7.329 6.572 12.493 9.771 11.534s4.012-7.678 1.815-15.007c-1.047-3.492-2.588-6.493-4.261-8.574-.281-.35-8.222.8-8.329 1.401-.5 2.803-.199 6.633 1.004 10.646zm-23.848 11.497c-.684 0-1.35-.351-1.724-.982-4.161-7.04-12.414-11.956-21.474-7.058a2 2 0 0 1-1.901-3.52c11.338-6.127 21.85.133 26.819 8.542a2 2 0 0 1-1.72 3.018z" fill="#25242e"/><path d="M278.455 103.371c2.197 7.329 6.572 12.493 9.771 11.534s4.012-7.678 1.815-15.007c-1.047-3.492-2.588-6.493-4.261-8.574-.281-.35-8.222.8-8.329 1.401-.499 2.803-.199 6.633 1.004 10.646z" fill="#25242e"/><path d="M284.911 29.726c41.257-45.222 98.093-30.827 135.286 12.276l-78.294 19.736c-7.692-4.518-16.07-8.923-20.584-10.812l11.656 13.799-10.769 2.805c-9.752-4.706-18.91-11.132-27.763-18.443 1.482 8.927 5.518 16.466 12.447 22.433l-22.852 5.954c-11.811-6.714-16.356-17.791-13.634-33.23-22.767 10.527-28.502 33.081-24.07 50.563l-6.579 2.649c-14.355-27.631-6.093-70.42 45.156-67.73z" fill="#b153e0"/><path d="M239.756 99.458a2 2 0 0 1-1.776-1.078c-8.866-17.068-8.734-37.201.339-51.291 6.125-9.512 19.028-20.551 45.753-19.404C301.175 9.263 322.054-.285 344.52.007c27.067.375 55.201 15.205 77.19 40.688a2 2 0 0 1-1.025 3.246l-78.294 19.736a2.012 2.012 0 0 1-1.502-.215 282.278 282.278 0 0 0-11.978-6.646l5.59 6.618a2.002 2.002 0 0 1-1.023 3.227l-10.769 2.806a2.007 2.007 0 0 1-1.374-.135c-7.557-3.646-15.312-8.584-23.583-15.023 1.984 6.162 5.482 11.425 10.442 15.696a2 2 0 0 1-.801 3.451l-22.852 5.954a2 2 0 0 1-1.493-.197c-11.551-6.565-16.64-17.133-15.16-31.442-18.971 10.633-23.641 30.675-19.617 46.546a2 2 0 0 1-1.192 2.347l-6.579 2.649a1.982 1.982 0 0 1-.744.145zm40.634-67.853c-17.917 0-31.244 6.056-38.708 17.649-7.899 12.268-8.229 30.403-.96 45.658l3.275-1.319c-3.875-18.094 2.449-40.475 25.568-51.163a2 2 0 0 1 2.809 2.163c-2.528 14.339 1.384 24.403 11.959 30.738l18.558-4.835c-5.546-5.73-9.046-12.805-10.42-21.081a2.001 2.001 0 0 1 3.247-1.87c9.518 7.86 18.26 13.71 26.7 17.863l6.981-1.818-9.607-11.373c-.596-.706-.631-1.729-.085-2.474s1.532-1.021 2.385-.662c4.467 1.869 12.475 6.059 20.117 10.517l74.318-18.733c-20.898-23.12-47.005-36.512-72.059-36.858-21.572-.326-41.65 9.061-58.077 27.066a1.986 1.986 0 0 1-1.582.649 86.441 86.441 0 0 0-4.419-.117z" fill="#b153e0"/><path d="M365.936 58.139a2.001 2.001 0 0 1-.503-3.936l32.621-8.498a2 2 0 0 1 1.008 3.871l-32.621 8.498a2.006 2.006 0 0 1-.505.065zM246.332 96.808a2 2 0 0 1-1.937-1.509c-4.658-18.37 1.318-41.842 25.169-52.869a2 2 0 0 1 1.679 3.631c-21.768 10.064-27.222 31.488-22.97 48.256a2 2 0 0 1-1.941 2.491z" fill="#25242e"/><path d="M326.391 129.97c-1.344-11.429-25.757-8.263-23.416 3.025-1.363 5.043 3.352 11.892 12.05 11.377 8.384-.495 15.441-8.836 11.366-14.402z" fill="#dda6ff"/><path d="M309.858 135.972c-2.587 0-5.107-.325-7.481-1.069a2 2 0 0 1-1.31-2.507 1.999 1.999 0 0 1 2.507-1.31c9.995 3.132 25.186-2.698 35.072-9.441a2 2 0 0 1 2.254 3.304c-6.712 4.578-19.522 11.023-31.042 11.023z" fill="#25242e"/><path d="M204.787 361.929c34.662-54.564 74.433-117.048 83.238-130.368 25.558-38.666-10.768-52.154-28.292-21.865-10.43 18.028-24.613 26.133-32.449 19.341s-.545-47.982 11.424-29.096c13.315 21.01 29.918 28.524 41.788 18.383 7.969-6.807 11.817-31.031-15.178-49.407-25.049-17.051-56.003-3.78-86.504 26.206-27.88 27.409-58.178 61.121-80.627 90.553-26.67 34.967 80.021 118.094 106.6 76.253z" fill="#fff"/><path d="M181.908 375.434c-1.032 0-2.085-.038-3.161-.114-28.954-2.057-70.034-32.113-82.934-60.682-5.408-11.978-5.137-22.411.784-30.175 21.605-28.326 51.817-62.258 80.815-90.767 34.223-33.646 65.01-42.785 89.031-26.434 11.929 8.12 17.466 16.969 19.97 24.138 4.822.903 8.699 3.863 10.75 8.255 2.218 4.75 4.198 15.355-7.47 33.008-8.947 13.536-50.193 78.35-83.218 130.338-5.19 8.171-13.644 12.432-24.567 12.433zm59.295-212.045c-21.844 0-44.201 16.657-60.987 33.159-28.871 28.384-58.942 62.156-80.439 90.341-6.285 8.24-3.643 18.743-.319 26.103 12.175 26.962 52.333 56.403 79.572 58.338 11.056.784 19.155-2.738 24.068-10.473 33.034-52.003 74.294-116.839 83.257-130.398 7.737-11.706 10.356-22.316 7.183-29.11-1.22-2.612-3.257-4.49-5.874-5.469.396 1.881.588 3.564.666 4.988.425 7.772-2.14 15.222-6.536 18.977-4.643 3.967-10.187 5.595-16.034 4.717-9.851-1.483-20.058-9.848-28.743-23.551-1.704-2.688-3.368-4.132-4.565-3.969-1.202.168-3.152 2.208-4.691 7.405-2.609 8.812-2.19 20.46.831 23.078.835.724.925 1.987.201 2.821a1.998 1.998 0 0 1-2.821.202c-5.25-4.551-4.562-18.742-2.047-27.237 1.842-6.223 4.6-9.761 7.974-10.23 2.943-.418 5.802 1.537 8.496 5.789 7.937 12.524 17.399 20.446 25.96 21.736 4.733.707 9.052-.566 12.84-3.803 2.853-2.438 5.549-8.242 5.14-15.718-.357-6.518-3.448-19.15-20.144-30.516-7.409-5.044-15.166-7.18-22.988-7.18z" fill="#25242e"/><path d="M148.047 451.34c7.029-11.081 30.698-48.412 56.74-89.411-48.132-.351-107.873-46.342-106.6-76.253-25.532 29.098-49.747 59.447-58.997 71.811-76.562 102.333-21.717 180.985 45.925 180.481 0 0 46.453-60.649 62.932-86.628z" fill="#dda6ff"/><path d="M84.467 539.97c-32.06 0-60.712-17.35-74.889-45.4-19.331-38.248-9.122-88.65 28.01-138.281 8.997-12.025 32.997-42.188 59.096-71.932a2.002 2.002 0 0 1 3.502 1.404c-.391 9.195 5.557 20.739 16.749 32.503 18.928 19.896 54.498 41.421 87.868 41.665a2 2 0 0 1 1.674 3.072 136405.988 136405.988 0 0 0-52.823 83.235l-3.917 6.175c-16.337 25.755-62.568 86.166-63.033 86.772-.375.49-.956.779-1.573.784-.222.003-.443.003-.664.003zm12.021-249.311c-24.766 28.439-47.105 56.542-55.697 68.026-36.187 48.368-46.263 97.239-27.643 134.081 13.44 26.592 40.576 43.079 70.977 43.204 5.488-7.187 47-61.687 62.233-85.701l3.916-6.175c9.545-15.051 29.293-46.188 50.938-80.268-33.473-1.669-68.353-23.02-87.176-42.805-10.05-10.562-16.131-21.144-17.548-30.362zm51.559 160.681h.01z" fill="#dda6ff"/><path d="M131.265 477.828a2 2 0 0 1-1.687-3.072c2.467-3.89 10.4-16.148 20.442-31.668 18.348-28.354 46.074-71.202 62.989-97.83a2.001 2.001 0 0 1 3.377 2.145c-16.924 26.643-44.656 69.499-63.007 97.858-10.037 15.512-17.965 27.764-20.423 31.638a1.998 1.998 0 0 1-1.691.929z" fill="#25242e"/><path d="M199.75 194.373c54.521-24.764 66.138 24.214 34.959 53.292-26.101 24.343-41.853-4.829-28.832-19.906z" fill="#fff"/><path d="M216.034 259.041a16.035 16.035 0 0 1-11.116-4.402c-6.566-6.32-8.356-19.154-.554-28.188a2 2 0 1 1 3.027 2.615c-6.319 7.316-4.946 17.64.301 22.69 6.07 5.844 15.659 3.766 25.653-5.555 15.295-14.265 20.827-35.104 12.593-47.443-3.567-5.347-15.128-16.298-45.361-2.563a2.001 2.001 0 0 1-1.654-3.642c33.026-15 46.208-2.209 50.342 3.986 9.447 14.156 3.776 36.765-13.192 52.589-8.169 7.618-14.898 9.912-20.039 9.913z" fill="#25242e"/><path d="M181.209 211.407c57.798-15.655 61.372 34.554 25.916 58.228-29.683 19.819-40.845-10.696-24.694-25.112z" fill="#fff"/><path d="M189.62 278.171c-7.38 0-11.44-4.138-12.911-6.038-6.357-8.213-4.388-21.269 4.389-29.103a2 2 0 1 1 2.664 2.984c-6.344 5.662-9.42 16.524-3.89 23.669 5.03 6.498 14.802 5.858 26.141-1.712 17.394-11.614 26.211-31.291 20.072-44.796-2.659-5.851-12.305-18.522-44.355-9.839a2 2 0 1 1-1.045-3.861c35.011-9.48 45.96 5.265 49.042 12.045 7.043 15.494-2.197 36.894-21.493 49.777-7.714 5.153-13.855 6.874-18.614 6.874z" fill="#25242e"/><path d="M167.812 228.042c59.851 1.894 48.617 50.961 7.794 63.257-34.174 10.294-33.831-23.169-17.076-31.703z" fill="#fff"/><path d="M163.882 295.145c-6.698 0-13.963-2.07-17.158-10.026-3.863-9.62 1.23-22.38 10.9-27.305a2 2 0 1 1 1.816 3.564c-7.794 3.97-12.085 14.575-9.003 22.25 2.997 7.464 11.961 9.562 24.594 5.756 20.026-6.032 34.202-22.279 32.271-36.988-1.767-13.467-16.183-21.615-39.552-22.354a2 2 0 0 1-1.936-2.062c.035-1.104.957-1.996 2.062-1.936 36.255 1.147 42.423 18.447 43.392 25.833 2.214 16.874-12.868 34.646-35.084 41.338-2.379.716-7.175 1.93-12.302 1.93z" fill="#25242e"/><path d="M428.272 197.621c-.249 26.844-20.787 66.6-74.969 64.766-43.816-1.483-47.659-42.209-31.142-61.702 7.962-7.698 17.019-7.423 20.279-.623-14.066 11.198-21.658 43.668 13.272 45.721 40.028 2.353 52.133-33.426 52.457-49.1.105-7.745 20.226-8.113 20.103.938z" fill="#dda6ff"/><path d="M356.804 264.446c-1.18 0-2.37-.021-3.569-.061-18.921-.641-32.721-8.622-38.858-22.477-6.017-13.583-3.444-31.066 6.258-42.518.043-.051.088-.099.136-.145 4.946-4.782 10.631-7.009 15.597-6.121 3.503.629 6.3 2.784 7.876 6.07a2 2 0 0 1-.558 2.43c-7.459 5.938-13.324 18.992-10.166 28.96 2.511 7.926 10.226 12.49 22.31 13.201 13.746.808 25.218-2.94 34.092-11.136 10.859-10.03 16.034-25.697 16.248-36.01.033-2.425 1.439-4.545 3.961-5.955 4.498-2.517 11.712-2.445 16.082.157 2.655 1.581 4.096 3.996 4.06 6.8-.163 17.458-7.944 35.24-20.817 47.569-13.175 12.622-31.322 19.236-52.652 19.236zm-33.181-62.393c-8.695 10.325-10.995 26.032-5.588 38.235 5.482 12.376 18.032 19.514 35.336 20.099 21.773.741 40.211-5.51 53.318-18.063 12.111-11.6 19.432-28.318 19.583-44.722v-.009c.019-1.374-.67-2.458-2.107-3.313-3.109-1.853-8.868-1.901-12.082-.103-1.257.703-1.901 1.555-1.914 2.532-.177 8.599-4.07 26.444-17.533 38.88-9.704 8.963-22.166 13.063-37.041 12.189-17.538-1.03-23.758-9.262-25.888-15.985-3.574-11.28 2.332-25.011 10.155-32.158-1.029-1.38-2.458-2.26-4.2-2.573-3.611-.645-8.105 1.218-12.039 4.991z" fill="#25242e"/></svg></g></svg>